<svg width="1084" height="1084" viewBox="0 0 1084 1084" fill="none" xmlns="http://www.w3.org/2000/svg">
<g id="strawberry-meadow">
<path id="-the-" d="M446.416 421.12C446.416 415.936 450.8 413.344 459.568 413.344L474.736 413.632C475.504 413.632 475.888 414.016 475.888 414.784C475.888 416.128 475.088 417.76 473.488 419.68C471.888 421.536 470.544 422.464 469.456 422.464L460.912 421.792L446.992 421.984C446.608 421.984 446.416 421.696 446.416 421.12ZM486.698 442.816C485.994 441.088 485.482 439.104 485.162 436.864C484.842 434.56 484.682 431.36 484.682 427.264C484.682 423.168 485.45 417.632 486.986 410.656H482.666C481.898 410.656 481.514 410.336 481.514 409.696C481.514 408.16 481.642 406.912 481.898 405.952C482.218 404.928 482.922 403.776 484.01 402.496H486.314C487.21 402.496 488.17 402.464 489.194 402.4C492.266 392.544 495.402 387.616 498.602 387.616C501.162 387.68 502.954 389.312 503.978 392.512C504.234 393.408 504.522 394.368 504.842 395.392L500.906 402.304C505.386 402.432 508.202 402.496 509.354 402.496C510.57 402.496 511.21 402.624 511.274 402.88C511.402 403.072 511.466 403.392 511.466 403.84C511.466 404.992 511.178 406.432 510.602 408.16C510.09 409.888 509.482 410.72 508.778 410.656L499.178 410.176C497.834 417.984 497.162 424.448 497.162 429.568C497.162 434.688 497.898 437.248 499.37 437.248C500.586 437.248 502.794 436.256 505.994 434.272C509.194 432.224 511.498 430.272 512.906 428.416C514.314 426.56 515.466 425.632 516.362 425.632C517.258 425.632 517.706 426.72 517.706 428.896C517.706 431.072 516.938 433.312 515.402 435.616C513.866 437.856 511.914 439.936 509.546 441.856C507.242 443.712 504.65 445.248 501.77 446.464C498.954 447.68 496.49 448.288 494.378 448.288C492.266 448.288 490.634 447.808 489.482 446.848C488.394 445.824 487.466 444.48 486.698 442.816ZM544.911 415.744C544.911 413.44 543.535 412.288 540.783 412.288C538.095 412.288 535.439 414.4 532.815 418.624C530.191 422.784 528.559 427.04 527.919 431.392C528.047 432.864 528.175 434.336 528.303 435.808C528.431 437.28 528.495 438.72 528.495 440.128C528.495 443.52 527.375 445.824 525.135 447.04C524.111 447.616 523.119 448.16 522.159 448.672C521.263 449.184 520.207 449.44 518.991 449.44C517.775 449.44 516.687 448.64 515.727 447.04C514.831 445.376 514.383 442.816 514.383 439.36C514.383 429.696 515.087 421.312 516.495 414.208C518.671 403.2 522.991 391.424 529.455 378.88C530.351 377.152 531.663 376.32 533.391 376.384C535.119 376.384 536.527 377.568 537.615 379.936C538.703 382.304 539.215 384.288 539.151 385.888C539.151 387.488 538.895 389.056 538.383 390.592C537.935 392.064 537.327 393.536 536.559 395.008C535.855 396.416 535.023 397.888 534.062 399.424C533.167 400.896 532.271 402.496 531.375 404.224L529.935 411.136C532.431 406.976 535.791 404.192 540.015 402.784C541.551 402.272 543.247 402.016 545.103 402.016C549.455 402.016 552.751 403.008 554.991 404.992C557.231 406.912 558.351 409.664 558.351 413.248C558.351 416.768 557.871 420.352 556.911 424C556.015 427.648 555.343 430.272 554.895 431.872C554.511 433.408 554.319 434.688 554.319 435.712C554.319 436.736 554.671 437.248 555.375 437.248C556.335 437.248 557.519 436.64 558.927 435.424C560.335 434.208 561.743 432.896 563.151 431.488C564.559 430.016 565.839 428.672 566.991 427.456C568.207 426.24 569.039 425.632 569.487 425.632C570.383 425.632 570.831 426.72 570.831 428.896C570.831 433.376 568.623 437.696 564.207 441.856C556.783 446.208 552.047 448.384 549.999 448.384C549.807 448.384 549.679 448.352 549.615 448.288C544.495 448.288 541.935 444.192 541.935 436C541.935 432.48 542.255 429.248 542.895 426.304C543.599 423.36 544.111 421.216 544.431 419.872C544.751 418.528 544.911 417.152 544.911 415.744ZM588.373 437.536C593.365 437.536 598.197 435.552 602.869 431.584C604.597 430.112 606.005 428.768 607.093 427.552C608.181 426.272 609.013 425.632 609.589 425.632C610.485 425.632 610.933 426.528 610.933 428.32C610.933 430.112 610.453 432.128 609.493 434.368C608.533 436.544 606.933 438.688 604.693 440.8C599.189 445.984 591.637 448.576 582.037 448.576C574.421 448.576 569.237 445.824 566.485 440.32C565.525 438.4 565.045 435.648 565.045 432.064C565.045 428.48 565.749 424.768 567.157 420.928C568.565 417.024 570.421 413.664 572.725 410.848C575.093 408.032 577.813 405.856 580.885 404.32C583.957 402.72 587.221 401.92 590.677 401.92C594.197 401.92 596.885 402.784 598.741 404.512C600.661 406.24 601.621 408.48 601.621 411.232C601.621 413.984 600.917 416.256 599.509 418.048C598.165 419.776 596.405 421.248 594.229 422.464C592.053 423.616 589.621 424.672 586.933 425.632C584.309 426.528 581.717 427.552 579.157 428.704V431.104C579.221 433.408 580.181 435.04 582.037 436C583.893 436.96 586.005 437.472 588.373 437.536ZM586.741 410.464C583.413 410.464 581.109 414.336 579.829 422.08C581.173 421.184 582.421 420.384 583.573 419.68C584.789 418.976 585.845 418.304 586.741 417.664C588.661 416.256 589.653 414.656 589.717 412.864C589.717 411.264 588.725 410.464 586.741 410.464ZM607.666 421.12C607.666 415.936 612.05 413.344 620.818 413.344L635.986 413.632C636.754 413.632 637.138 414.016 637.138 414.784C637.138 416.128 636.338 417.76 634.738 419.68C633.138 421.536 631.794 422.464 630.706 422.464L622.162 421.792L608.242 421.984C607.858 421.984 607.666 421.696 607.666 421.12Z" fill="#D7A6FE"/>
<path id="Meadow" d="M295.6 584.6C299.147 584.6 302.04 585.767 304.28 588.1C306.52 590.433 307.64 593.467 307.64 597.2V673.36C307.64 676.907 306.613 679.707 304.56 681.76C302.507 683.813 299.8 684.84 296.44 684.84C293.173 684.84 290.467 683.813 288.32 681.76C286.267 679.707 285.24 676.907 285.24 673.36V632.2L269.28 661.6C267.693 664.587 266.013 666.733 264.24 668.04C262.467 669.253 260.367 669.86 257.94 669.86C255.513 669.86 253.413 669.253 251.64 668.04C249.867 666.733 248.187 664.587 246.6 661.6L230.78 633.04V673.36C230.78 676.813 229.707 679.613 227.56 681.76C225.507 683.813 222.8 684.84 219.44 684.84C216.173 684.84 213.467 683.813 211.32 681.76C209.267 679.707 208.24 676.907 208.24 673.36V597.2C208.24 593.467 209.36 590.433 211.6 588.1C213.933 585.767 216.873 584.6 220.42 584.6C222.94 584.6 225.227 585.347 227.28 586.84C229.333 588.24 231.06 590.293 232.46 593L258.22 641.44L283.84 593C286.733 587.4 290.653 584.6 295.6 584.6ZM337.712 684C333.885 684 330.945 682.973 328.892 680.92C326.838 678.867 325.812 675.927 325.812 672.1V597.2C325.812 593.373 326.838 590.433 328.892 588.38C330.945 586.327 333.885 585.3 337.712 585.3H386.152C390.165 585.3 393.198 586.14 395.252 587.82C397.305 589.5 398.332 591.927 398.332 595.1C398.332 601.82 394.272 605.18 386.152 605.18H350.872V623.94H383.352C391.472 623.94 395.532 627.253 395.532 633.88C395.532 637.053 394.505 639.48 392.452 641.16C390.398 642.84 387.365 643.68 383.352 643.68H350.872V664.12H386.152C394.272 664.12 398.332 667.48 398.332 674.2C398.332 677.373 397.305 679.8 395.252 681.48C393.198 683.16 390.165 684 386.152 684H337.712ZM502.616 668.18C503.456 669.953 503.876 671.68 503.876 673.36C503.876 676.44 502.616 679.053 500.096 681.2C497.67 683.347 494.87 684.42 491.696 684.42C489.55 684.42 487.59 683.86 485.816 682.74C484.043 681.62 482.643 679.94 481.616 677.7L475.316 663.56H429.956L423.516 677.7C422.49 679.94 421.043 681.62 419.176 682.74C417.403 683.86 415.443 684.42 413.296 684.42C410.123 684.42 407.23 683.347 404.616 681.2C402.096 679.053 400.836 676.44 400.836 673.36C400.836 671.68 401.256 669.953 402.096 668.18L439.056 592.3C440.27 589.78 442.043 587.867 444.376 586.56C446.803 585.16 449.463 584.46 452.356 584.46C455.156 584.46 457.77 585.16 460.196 586.56C462.623 587.867 464.443 589.78 465.656 592.3L502.616 668.18ZM438.636 644.24H466.636L452.636 613.02L438.636 644.24ZM526.52 684C522.693 684 519.753 682.973 517.7 680.92C515.647 678.867 514.62 675.927 514.62 672.1V597.2C514.62 593.373 515.647 590.433 517.7 588.38C519.753 586.327 522.693 585.3 526.52 585.3H554.8C565.72 585.3 575.1 587.307 582.94 591.32C590.873 595.24 596.94 600.887 601.14 608.26C605.34 615.633 607.44 624.407 607.44 634.58C607.44 644.847 605.34 653.713 601.14 661.18C597.033 668.553 591.013 674.2 583.08 678.12C575.24 682.04 565.813 684 554.8 684H526.52ZM552.98 663.28C562.593 663.28 569.78 660.947 574.54 656.28C579.393 651.52 581.82 644.287 581.82 634.58C581.82 624.873 579.393 617.687 574.54 613.02C569.78 608.353 562.593 606.02 552.98 606.02H540.38V663.28H552.98ZM669.801 685.26C659.721 685.26 650.948 683.207 643.481 679.1C636.108 674.9 630.415 669.02 626.401 661.46C622.388 653.807 620.381 644.847 620.381 634.58C620.381 624.313 622.388 615.4 626.401 607.84C630.415 600.187 636.108 594.307 643.481 590.2C650.948 586.093 659.721 584.04 669.801 584.04C679.881 584.04 688.608 586.093 695.981 590.2C703.448 594.307 709.141 600.187 713.061 607.84C717.075 615.4 719.081 624.313 719.081 634.58C719.081 644.847 717.075 653.807 713.061 661.46C709.048 669.02 703.308 674.9 695.841 679.1C688.468 683.207 679.788 685.26 669.801 685.26ZM669.801 665.52C677.268 665.52 683.101 662.907 687.301 657.68C691.501 652.36 693.601 644.66 693.601 634.58C693.601 624.5 691.455 616.847 687.161 611.62C682.961 606.393 677.175 603.78 669.801 603.78C662.335 603.78 656.501 606.393 652.301 611.62C648.101 616.753 646.001 624.407 646.001 634.58C646.001 644.753 648.101 652.453 652.301 657.68C656.501 662.907 662.335 665.52 669.801 665.52ZM852.139 592.44C853.073 589.827 854.566 587.82 856.619 586.42C858.766 585.02 861.099 584.32 863.619 584.32C866.699 584.32 869.359 585.3 871.599 587.26C873.933 589.22 875.099 591.88 875.099 595.24C875.099 596.733 874.726 598.6 873.979 600.84L845.839 677C844.906 679.613 843.179 681.667 840.659 683.16C838.233 684.56 835.526 685.26 832.539 685.26C829.553 685.26 826.846 684.56 824.419 683.16C821.993 681.667 820.313 679.613 819.379 677L801.179 625.06L782.139 677C781.113 679.613 779.386 681.667 776.959 683.16C774.533 684.56 771.873 685.26 768.979 685.26C765.993 685.26 763.286 684.56 760.859 683.16C758.433 681.667 756.753 679.613 755.819 677L727.539 600.84C726.886 598.973 726.559 597.2 726.559 595.52C726.559 592.067 727.773 589.36 730.199 587.4C732.719 585.347 735.613 584.32 738.879 584.32C741.493 584.32 743.873 585.02 746.019 586.42C748.259 587.727 749.846 589.733 750.779 592.44L769.959 647.6L790.259 592.44C791.193 589.827 792.686 587.82 794.739 586.42C796.886 585.02 799.219 584.32 801.739 584.32C804.259 584.32 806.546 585.02 808.599 586.42C810.653 587.82 812.146 589.873 813.079 592.58L832.119 648.86L852.139 592.44Z" fill="#FFA2DB"/>
<path id="Strawberry" d="M230.584 557.864C225.464 557.864 220.696 557.32 216.28 556.232C211.928 555.08 208.344 553.512 205.528 551.528C204.44 550.696 203.64 549.832 203.128 548.936C202.68 548.04 202.456 546.888 202.456 545.48C202.456 543.56 203.032 541.896 204.184 540.488C205.336 539.08 206.68 538.376 208.216 538.376C209.048 538.376 209.848 538.504 210.616 538.76C211.384 539.016 212.344 539.496 213.496 540.2C216.12 541.672 218.712 542.728 221.272 543.368C223.896 544.008 226.84 544.328 230.104 544.328C233.88 544.328 236.728 543.784 238.648 542.696C240.632 541.544 241.624 539.88 241.624 537.704C241.624 536.232 240.696 534.984 238.84 533.96C237.048 532.872 233.592 531.816 228.472 530.792C222.136 529.448 217.176 527.848 213.592 525.992C210.008 524.136 207.48 521.96 206.008 519.464C204.6 516.904 203.896 513.832 203.896 510.248C203.896 506.152 205.112 502.44 207.544 499.112C209.976 495.784 213.304 493.192 217.528 491.336C221.816 489.416 226.616 488.456 231.928 488.456C236.6 488.456 240.76 488.968 244.408 489.992C248.056 491.016 251.384 492.616 254.392 494.792C255.544 495.624 256.344 496.52 256.792 497.48C257.304 498.376 257.56 499.496 257.56 500.84C257.56 502.76 256.984 504.424 255.832 505.832C254.744 507.24 253.432 507.944 251.896 507.944C251.064 507.944 250.296 507.848 249.592 507.656C248.888 507.4 247.896 506.888 246.616 506.12C246.296 505.928 245.368 505.448 243.832 504.68C242.36 503.848 240.6 503.208 238.552 502.76C236.568 502.248 234.392 501.992 232.024 501.992C228.76 501.992 226.136 502.632 224.152 503.912C222.168 505.128 221.176 506.76 221.176 508.808C221.176 510.024 221.528 511.016 222.232 511.784C222.936 512.552 224.248 513.32 226.168 514.088C228.088 514.792 230.936 515.528 234.712 516.296C240.856 517.64 245.688 519.272 249.208 521.192C252.728 523.048 255.224 525.224 256.696 527.72C258.168 530.216 258.904 533.16 258.904 536.552C258.904 540.776 257.72 544.52 255.352 547.784C252.984 550.984 249.656 553.48 245.368 555.272C241.144 557 236.216 557.864 230.584 557.864ZM291.68 557.48C288.992 557.48 286.816 556.712 285.152 555.176C283.552 553.576 282.752 551.464 282.752 548.84V503.624H269.216C266.4 503.624 264.288 503.048 262.88 501.896C261.536 500.68 260.864 498.856 260.864 496.424C260.864 493.992 261.536 492.2 262.88 491.048C264.288 489.896 266.4 489.32 269.216 489.32H314.144C316.96 489.32 319.04 489.896 320.384 491.048C321.792 492.2 322.496 493.992 322.496 496.424C322.496 498.856 321.792 500.68 320.384 501.896C319.04 503.048 316.96 503.624 314.144 503.624H300.608V548.84C300.608 551.464 299.776 553.576 298.112 555.176C296.512 556.712 294.368 557.48 291.68 557.48ZM385.072 545.768C386.224 547.496 386.8 549.128 386.8 550.664C386.8 552.712 385.936 554.44 384.208 555.848C382.544 557.192 380.592 557.864 378.352 557.864C376.816 557.864 375.376 557.512 374.032 556.808C372.688 556.104 371.536 555.048 370.576 553.64L358.096 535.4C357.2 534.12 356.24 533.192 355.216 532.616C354.256 531.976 353.104 531.656 351.76 531.656H345.52V548.84C345.52 551.528 344.752 553.672 343.216 555.272C341.68 556.808 339.568 557.576 336.88 557.576C334.192 557.576 332.048 556.808 330.448 555.272C328.912 553.672 328.144 551.528 328.144 548.84V497.48C328.144 494.856 328.848 492.84 330.256 491.432C331.664 490.024 333.68 489.32 336.304 489.32H360.4C368.592 489.32 374.736 491.112 378.832 494.696C382.992 498.216 385.072 503.336 385.072 510.056C385.072 515.176 383.664 519.528 380.848 523.112C378.032 526.632 374.064 529 368.944 530.216C371.056 530.536 372.88 531.24 374.416 532.328C376.016 533.416 377.584 535.048 379.12 537.224L385.072 545.768ZM357.616 518.408C361.52 518.408 364.304 517.8 365.968 516.584C367.696 515.368 368.56 513.384 368.56 510.632C368.56 507.816 367.696 505.8 365.968 504.584C364.304 503.304 361.52 502.664 357.616 502.664H345.328V518.408H357.616ZM459.788 546.152C460.364 547.368 460.652 548.552 460.652 549.704C460.652 551.816 459.788 553.608 458.06 555.08C456.396 556.552 454.476 557.288 452.3 557.288C450.828 557.288 449.484 556.904 448.268 556.136C447.052 555.368 446.092 554.216 445.388 552.68L441.068 542.984H409.964L405.548 552.68C404.844 554.216 403.852 555.368 402.572 556.136C401.356 556.904 400.012 557.288 398.54 557.288C396.364 557.288 394.38 556.552 392.588 555.08C390.86 553.608 389.996 551.816 389.996 549.704C389.996 548.552 390.284 547.368 390.86 546.152L416.204 494.12C417.036 492.392 418.252 491.08 419.852 490.184C421.516 489.224 423.34 488.744 425.324 488.744C427.244 488.744 429.036 489.224 430.7 490.184C432.364 491.08 433.612 492.392 434.444 494.12L459.788 546.152ZM415.916 529.736H435.116L425.516 508.328L415.916 529.736ZM543.93 494.216C544.57 492.424 545.594 491.048 547.002 490.088C548.474 489.128 550.074 488.648 551.802 488.648C553.914 488.648 555.738 489.32 557.274 490.664C558.874 492.008 559.674 493.832 559.674 496.136C559.674 497.16 559.418 498.44 558.906 499.976L539.61 552.2C538.97 553.992 537.786 555.4 536.058 556.424C534.394 557.384 532.538 557.864 530.49 557.864C528.442 557.864 526.586 557.384 524.922 556.424C523.258 555.4 522.106 553.992 521.466 552.2L508.986 516.584L495.93 552.2C495.226 553.992 494.042 555.4 492.378 556.424C490.714 557.384 488.89 557.864 486.906 557.864C484.858 557.864 483.002 557.384 481.338 556.424C479.674 555.4 478.522 553.992 477.882 552.2L458.49 499.976C458.042 498.696 457.818 497.48 457.818 496.328C457.818 493.96 458.65 492.104 460.314 490.76C462.042 489.352 464.026 488.648 466.266 488.648C468.058 488.648 469.69 489.128 471.162 490.088C472.698 490.984 473.786 492.36 474.426 494.216L487.578 532.04L501.498 494.216C502.138 492.424 503.162 491.048 504.57 490.088C506.042 489.128 507.642 488.648 509.37 488.648C511.098 488.648 512.666 489.128 514.074 490.088C515.482 491.048 516.506 492.456 517.146 494.312L530.202 532.904L543.93 494.216ZM614.115 521.864C618.083 523.08 621.123 525.128 623.235 528.008C625.347 530.824 626.403 534.312 626.403 538.472C626.403 542.184 625.411 545.448 623.427 548.264C621.507 551.016 618.723 553.16 615.075 554.696C611.491 556.232 607.267 557 602.403 557H576.867C574.243 557 572.227 556.296 570.819 554.888C569.411 553.48 568.707 551.464 568.707 548.84V497.48C568.707 494.856 569.411 492.84 570.819 491.432C572.227 490.024 574.243 489.32 576.867 489.32H601.443C608.547 489.32 614.179 490.92 618.339 494.12C622.563 497.256 624.675 501.512 624.675 506.888C624.675 510.344 623.747 513.416 621.891 516.104C620.035 518.728 617.443 520.648 614.115 521.864ZM585.891 515.912H598.467C601.795 515.912 604.227 515.4 605.763 514.376C607.299 513.352 608.067 511.72 608.067 509.48C608.067 507.112 607.299 505.384 605.763 504.296C604.227 503.208 601.795 502.664 598.467 502.664H585.891V515.912ZM600.195 543.656C603.715 543.656 606.211 543.112 607.683 542.024C609.219 540.872 609.987 539.016 609.987 536.456C609.987 533.896 609.219 532.072 607.683 530.984C606.211 529.832 603.715 529.256 600.195 529.256H585.891V543.656H600.195ZM643.617 557C640.993 557 638.977 556.296 637.569 554.888C636.161 553.48 635.457 551.464 635.457 548.84V497.48C635.457 494.856 636.161 492.84 637.569 491.432C638.977 490.024 640.993 489.32 643.617 489.32H676.833C679.585 489.32 681.665 489.896 683.073 491.048C684.481 492.2 685.185 493.864 685.185 496.04C685.185 500.648 682.401 502.952 676.833 502.952H652.641V515.816H674.913C680.481 515.816 683.265 518.088 683.265 522.632C683.265 524.808 682.561 526.472 681.153 527.624C679.745 528.776 677.665 529.352 674.913 529.352H652.641V543.368H676.833C682.401 543.368 685.185 545.672 685.185 550.28C685.185 552.456 684.481 554.12 683.073 555.272C681.665 556.424 679.585 557 676.833 557H643.617ZM749.666 545.768C750.818 547.496 751.394 549.128 751.394 550.664C751.394 552.712 750.53 554.44 748.802 555.848C747.138 557.192 745.186 557.864 742.946 557.864C741.41 557.864 739.97 557.512 738.626 556.808C737.282 556.104 736.13 555.048 735.17 553.64L722.69 535.4C721.794 534.12 720.834 533.192 719.81 532.616C718.85 531.976 717.698 531.656 716.354 531.656H710.114V548.84C710.114 551.528 709.346 553.672 707.81 555.272C706.274 556.808 704.162 557.576 701.474 557.576C698.786 557.576 696.642 556.808 695.042 555.272C693.506 553.672 692.738 551.528 692.738 548.84V497.48C692.738 494.856 693.442 492.84 694.85 491.432C696.258 490.024 698.274 489.32 700.898 489.32H724.994C733.186 489.32 739.33 491.112 743.426 494.696C747.586 498.216 749.666 503.336 749.666 510.056C749.666 515.176 748.258 519.528 745.442 523.112C742.626 526.632 738.658 529 733.538 530.216C735.65 530.536 737.474 531.24 739.01 532.328C740.61 533.416 742.178 535.048 743.714 537.224L749.666 545.768ZM722.21 518.408C726.114 518.408 728.898 517.8 730.562 516.584C732.29 515.368 733.154 513.384 733.154 510.632C733.154 507.816 732.29 505.8 730.562 504.584C728.898 503.304 726.114 502.664 722.21 502.664H709.922V518.408H722.21ZM817.541 545.768C818.693 547.496 819.269 549.128 819.269 550.664C819.269 552.712 818.405 554.44 816.677 555.848C815.013 557.192 813.061 557.864 810.821 557.864C809.285 557.864 807.845 557.512 806.501 556.808C805.157 556.104 804.005 555.048 803.045 553.64L790.565 535.4C789.669 534.12 788.709 533.192 787.685 532.616C786.725 531.976 785.573 531.656 784.229 531.656H777.989V548.84C777.989 551.528 777.221 553.672 775.685 555.272C774.149 556.808 772.037 557.576 769.349 557.576C766.661 557.576 764.517 556.808 762.917 555.272C761.381 553.672 760.613 551.528 760.613 548.84V497.48C760.613 494.856 761.317 492.84 762.725 491.432C764.133 490.024 766.149 489.32 768.773 489.32H792.869C801.061 489.32 807.205 491.112 811.301 494.696C815.461 498.216 817.541 503.336 817.541 510.056C817.541 515.176 816.133 519.528 813.317 523.112C810.501 526.632 806.533 529 801.413 530.216C803.525 530.536 805.349 531.24 806.885 532.328C808.485 533.416 810.053 535.048 811.589 537.224L817.541 545.768ZM790.085 518.408C793.989 518.408 796.773 517.8 798.437 516.584C800.165 515.368 801.029 513.384 801.029 510.632C801.029 507.816 800.165 505.8 798.437 504.584C796.773 503.304 793.989 502.664 790.085 502.664H777.797V518.408H790.085ZM869.505 491.624C871.169 489.704 873.121 488.744 875.361 488.744C877.473 488.744 879.361 489.576 881.025 491.24C882.753 492.84 883.617 494.696 883.617 496.808C883.617 498.664 882.913 500.424 881.505 502.088L861.345 525.416V548.84C861.345 551.656 860.513 553.832 858.849 555.368C857.249 556.84 855.169 557.576 852.609 557.576C849.985 557.576 847.841 556.84 846.177 555.368C844.513 553.832 843.681 551.656 843.681 548.84V525.416L823.713 502.088C822.241 500.424 821.505 498.632 821.505 496.712C821.505 494.6 822.337 492.744 824.001 491.144C825.665 489.544 827.553 488.744 829.665 488.744C831.905 488.744 833.857 489.704 835.521 491.624L852.513 511.784L869.505 491.624Z" fill="#FFA2DB"/>
<g id="strawberrys">
<g id="strawberry">
<path id="body" d="M541.865 975C549.729 975 569.42 995.359 579.025 1016.26C583.35 1025.66 585.218 1040.8 579.025 1050.2C570.392 1063.3 564.074 1067.98 548.766 1069L535.009 1069C519.801 1067.98 513.525 1063.3 504.948 1050.2C498.796 1040.8 500.653 1025.66 504.948 1016.26C514.491 995.359 534 975 541.865 975Z" fill="#FFCACA"/>
<path id="leaves" d="M510.608 1068.4C516.74 1073.08 534.016 1071.33 539.88 1067.89L547.705 1069.83C554.097 1071.1 560.492 1072.37 568.672 1071.34C576.853 1070.3 581.519 1060.79 567.54 1055.59C571.767 1045.52 564.3 1040.6 549.568 1045.88C545.435 1038.34 538.485 1037.5 533.562 1044.97C522.909 1040.72 510.476 1040.38 514.203 1055.24C505.841 1057.76 503.082 1063.98 510.608 1068.4Z" fill="#C9E3C0"/>
<path id="stem" d="M542.536 1084C527.536 1084 537.046 1058.5 541.541 1058.5C546.036 1058.5 557.537 1084 542.536 1084Z" fill="#B4DAA9"/>
<g id="seeds">
<path d="M537.308 1028C537.308 1025.24 539.03 1023 541.154 1023C543.278 1023 545 1025.24 545 1028C545 1030.76 543.278 1033 541.154 1033C539.03 1033 537.308 1030.76 537.308 1028Z" fill="white" fill-opacity="0.5"/>
<path d="M537.308 991C537.308 988.239 539.03 986 541.154 986C543.278 986 545 988.239 545 991C545 993.761 543.278 996 541.154 996C539.03 996 537.308 993.761 537.308 991Z" fill="white" fill-opacity="0.5"/>
<path d="M563.308 1028C563.308 1025.24 565.03 1023 567.154 1023C569.278 1023 571 1025.24 571 1028C571 1030.76 569.278 1033 567.154 1033C565.03 1033 563.308 1030.76 563.308 1028Z" fill="white" fill-opacity="0.5"/>
<path d="M511.308 1028C511.308 1025.24 513.03 1023 515.154 1023C517.278 1023 519 1025.24 519 1028C519 1030.76 517.278 1033 515.154 1033C513.03 1033 511.308 1030.76 511.308 1028Z" fill="white" fill-opacity="0.5"/>
<path d="M524.308 1010C524.308 1007.24 526.03 1005 528.154 1005C530.278 1005 532 1007.24 532 1010C532 1012.76 530.278 1015 528.154 1015C526.03 1015 524.308 1012.76 524.308 1010Z" fill="white" fill-opacity="0.5"/>
<path d="M550.308 1010C550.308 1007.24 552.03 1005 554.154 1005C556.278 1005 558 1007.24 558 1010C558 1012.76 556.278 1015 554.154 1015C552.03 1015 550.308 1012.76 550.308 1010Z" fill="white" fill-opacity="0.5"/>
</g>
</g>
<g id="strawberry_2">
<path id="body_2" d="M109 542.865C109 550.729 88.6411 570.42 67.7444 580.025C58.3368 584.35 43.2 586.218 33.8 580.025C20.6957 571.392 16.0227 565.074 15 549.766L15 536.009C16.0227 520.801 20.6957 514.525 33.8 505.948C43.2 499.796 58.3368 501.653 67.7445 505.948C88.6411 515.491 109 535 109 542.865Z" fill="#FFCACA"/>
<path id="leaves_2" d="M15.5956 511.608C10.9202 517.74 12.6659 535.016 16.1152 540.88L14.17 548.705C12.9002 555.097 11.6301 561.492 12.6638 569.672C13.6976 577.853 23.2097 582.519 28.4104 568.54C38.479 572.767 43.4027 565.3 38.1185 550.568C45.6642 546.435 46.4974 539.485 39.03 534.562C43.2805 523.909 43.6164 511.476 28.7613 515.203C26.2387 506.841 20.023 504.082 15.5956 511.608Z" fill="#C9E3C0"/>
<path id="stem_2" d="M9.7883e-07 543.536C6.3981e-05 528.536 25.5 538.046 25.5 542.541C25.5 547.036 -6.20232e-05 558.537 9.7883e-07 543.536Z" fill="#B4DAA9"/>
<g id="seeds_2">
<path d="M56 538.308C58.7614 538.308 61 540.03 61 542.154C61 544.278 58.7614 546 56 546C53.2386 546 51 544.278 51 542.154C51 540.03 53.2386 538.308 56 538.308Z" fill="white" fill-opacity="0.5"/>
<path d="M93 538.308C95.7614 538.308 98 540.03 98 542.154C98 544.278 95.7614 546 93 546C90.2386 546 88 544.278 88 542.154C88 540.03 90.2386 538.308 93 538.308Z" fill="white" fill-opacity="0.5"/>
<path d="M56 564.308C58.7614 564.308 61 566.03 61 568.154C61 570.278 58.7614 572 56 572C53.2386 572 51 570.278 51 568.154C51 566.03 53.2386 564.308 56 564.308Z" fill="white" fill-opacity="0.5"/>
<path d="M56 512.308C58.7614 512.308 61 514.03 61 516.154C61 518.278 58.7614 520 56 520C53.2386 520 51 518.278 51 516.154C51 514.03 53.2386 512.308 56 512.308Z" fill="white" fill-opacity="0.5"/>
<path d="M74 525.308C76.7614 525.308 79 527.03 79 529.154C79 531.278 76.7614 533 74 533C71.2386 533 69 531.278 69 529.154C69 527.03 71.2386 525.308 74 525.308Z" fill="white" fill-opacity="0.5"/>
<path d="M74 551.308C76.7614 551.308 79 553.03 79 555.154C79 557.278 76.7614 559 74 559C71.2386 559 69 557.278 69 555.154C69 553.03 71.2386 551.308 74 551.308Z" fill="white" fill-opacity="0.5"/>
</g>
</g>
<g id="strawberry_3">
<path id="body_3" d="M541.643 109C533.778 109 514.088 88.6411 504.482 67.7444C500.158 58.3368 498.29 43.2 504.482 33.8C513.116 20.6957 519.433 16.0227 534.742 15L548.499 15C563.707 16.0227 569.983 20.6957 578.559 33.8C584.712 43.2 582.855 58.3368 578.559 67.7445C569.017 88.6411 549.508 109 541.643 109Z" fill="#FFCACA"/>
<path id="leaves_3" d="M572.899 15.5952C566.768 10.9197 549.492 12.6654 543.628 16.1147L535.803 14.1695C529.411 12.8998 523.016 11.6296 514.836 12.6633C506.655 13.6971 501.989 23.2092 515.968 28.4099C511.741 38.4785 519.208 43.4022 533.94 38.118C538.073 45.6637 545.023 46.4969 549.945 39.0295C560.599 43.2801 573.032 43.6159 569.305 28.7608C577.666 26.2382 580.426 20.0225 572.899 15.5952Z" fill="#C9E3C0"/>
<path id="stem_3" d="M540.971 1.30507e-06C555.972 6.49629e-05 546.462 25.5 541.967 25.5C537.472 25.5 525.971 -6.23526e-05 540.971 1.30507e-06Z" fill="#B4DAA9"/>
<g id="seeds_3">
<path d="M546.2 56C546.2 58.7614 544.478 61 542.354 61C540.23 61 538.508 58.7614 538.508 56C538.508 53.2386 540.23 51 542.354 51C544.478 51 546.2 53.2386 546.2 56Z" fill="white" fill-opacity="0.5"/>
<path d="M546.2 93C546.2 95.7614 544.478 98 542.354 98C540.23 98 538.508 95.7614 538.508 93C538.508 90.2386 540.23 88 542.354 88C544.478 88 546.2 90.2386 546.2 93Z" fill="white" fill-opacity="0.5"/>
<path d="M520.2 56C520.2 58.7614 518.478 61 516.354 61C514.23 61 512.508 58.7614 512.508 56C512.508 53.2386 514.23 51 516.354 51C518.478 51 520.2 53.2386 520.2 56Z" fill="white" fill-opacity="0.5"/>
<path d="M572.2 56C572.2 58.7614 570.478 61 568.354 61C566.23 61 564.508 58.7614 564.508 56C564.508 53.2386 566.23 51 568.354 51C570.478 51 572.2 53.2386 572.2 56Z" fill="white" fill-opacity="0.5"/>
<path d="M559.2 74C559.2 76.7614 557.478 79 555.354 79C553.23 79 551.508 76.7614 551.508 74C551.508 71.2386 553.23 69 555.354 69C557.478 69 559.2 71.2386 559.2 74Z" fill="white" fill-opacity="0.5"/>
<path d="M533.2 74C533.2 76.7614 531.478 79 529.354 79C527.23 79 525.508 76.7614 525.508 74C525.508 71.2386 527.23 69 529.354 69C531.478 69 533.2 71.2386 533.2 74Z" fill="white" fill-opacity="0.5"/>
</g>
</g>
<g id="strawberry_4">
<path id="body_4" d="M975 540.643C975 532.778 995.359 513.088 1016.26 503.482C1025.66 499.158 1040.8 497.29 1050.2 503.482C1063.3 512.116 1067.98 518.433 1069 533.742L1069 547.499C1067.98 562.707 1063.3 568.983 1050.2 577.559C1040.8 583.712 1025.66 581.855 1016.26 577.559C995.359 568.017 975 548.508 975 540.643Z" fill="#FFCACA"/>
<path id="leaves_4" d="M1068.4 571.899C1073.08 565.768 1071.33 548.492 1067.88 542.628L1069.83 534.803C1071.1 528.411 1072.37 522.016 1071.34 513.836C1070.3 505.655 1060.79 500.989 1055.59 514.968C1045.52 510.741 1040.6 518.208 1045.88 532.94C1038.34 537.073 1037.5 544.023 1044.97 548.945C1040.72 559.599 1040.38 572.032 1055.24 568.305C1057.76 576.666 1063.98 579.426 1068.4 571.899Z" fill="#C9E3C0"/>
<path id="stem_4" d="M1084 539.971C1084 554.972 1058.5 545.462 1058.5 540.967C1058.5 536.472 1084 524.971 1084 539.971Z" fill="#B4DAA9"/>
<g id="seeds_4">
<path d="M1028 545.2C1025.24 545.2 1023 543.478 1023 541.354C1023 539.23 1025.24 537.508 1028 537.508C1030.76 537.508 1033 539.23 1033 541.354C1033 543.478 1030.76 545.2 1028 545.2Z" fill="white" fill-opacity="0.5"/>
<path d="M991 545.2C988.239 545.2 986 543.478 986 541.354C986 539.23 988.239 537.508 991 537.508C993.761 537.508 996 539.23 996 541.354C996 543.478 993.761 545.2 991 545.2Z" fill="white" fill-opacity="0.5"/>
<path d="M1028 519.2C1025.24 519.2 1023 517.478 1023 515.354C1023 513.23 1025.24 511.508 1028 511.508C1030.76 511.508 1033 513.23 1033 515.354C1033 517.478 1030.76 519.2 1028 519.2Z" fill="white" fill-opacity="0.5"/>
<path d="M1028 571.2C1025.24 571.2 1023 569.478 1023 567.354C1023 565.23 1025.24 563.508 1028 563.508C1030.76 563.508 1033 565.23 1033 567.354C1033 569.478 1030.76 571.2 1028 571.2Z" fill="white" fill-opacity="0.5"/>
<path d="M1010 558.2C1007.24 558.2 1005 556.478 1005 554.354C1005 552.23 1007.24 550.508 1010 550.508C1012.76 550.508 1015 552.23 1015 554.354C1015 556.478 1012.76 558.2 1010 558.2Z" fill="white" fill-opacity="0.5"/>
<path d="M1010 532.2C1007.24 532.2 1005 530.478 1005 528.354C1005 526.23 1007.24 524.508 1010 524.508C1012.76 524.508 1015 526.23 1015 528.354C1015 530.478 1012.76 532.2 1010 532.2Z" fill="white" fill-opacity="0.5"/>
</g>
</g>
<g id="strawberry_5">
<path id="body_5" d="M652.473 960.647C660.069 958.611 684.358 973.18 699.045 990.878C705.657 998.846 711.379 1012.98 707.83 1023.67C702.883 1038.56 697.99 1044.71 683.468 1049.66L670.179 1053.22C655.225 1056.17 647.953 1053.28 636.277 1042.84C627.902 1035.35 625.777 1020.25 627.492 1010.05C631.301 987.397 644.876 962.682 652.473 960.647Z" fill="#FFCCEB"/>
<path id="leaves_5" d="M646.455 1058.96C653.588 1061.89 669.823 1055.73 674.595 1050.88L682.656 1050.73C689.16 1050.31 695.665 1049.88 703.3 1046.76C710.934 1043.65 712.979 1033.25 698.13 1031.85C699.607 1021.03 691.12 1018.2 678.258 1027.12C672.313 1020.9 665.384 1021.89 662.562 1030.38C651.171 1029.03 639.075 1031.93 646.52 1045.31C639.096 1049.91 638.039 1056.63 646.455 1058.96Z" fill="#C9E3C0"/>
<path id="stem_5" d="M681.332 1065.76C666.843 1069.64 669.429 1042.55 673.77 1041.39C678.112 1040.22 695.821 1061.88 681.332 1065.76Z" fill="#B4DAA9"/>
<g id="seeds_5">
<path d="M661.788 1013.02C661.073 1010.35 662.157 1007.74 664.209 1007.2C666.26 1006.65 668.503 1008.36 669.218 1011.03C669.933 1013.7 668.849 1016.3 666.797 1016.85C664.745 1017.4 662.502 1015.69 661.788 1013.02Z" fill="white" fill-opacity="0.5"/>
<path d="M652.211 977.281C651.497 974.614 652.581 972.006 654.632 971.456C656.684 970.906 658.927 972.623 659.642 975.29C660.356 977.957 659.272 980.565 657.221 981.115C655.169 981.665 652.926 979.948 652.211 977.281Z" fill="white" fill-opacity="0.5"/>
<path d="M686.902 1006.29C686.187 1003.62 687.271 1001.02 689.323 1000.47C691.374 999.916 693.617 1001.63 694.332 1004.3C695.047 1006.97 693.963 1009.58 691.911 1010.12C689.859 1010.67 687.616 1008.96 686.902 1006.29Z" fill="white" fill-opacity="0.5"/>
<path d="M636.674 1019.75C635.959 1017.08 637.043 1014.47 639.095 1013.92C641.146 1013.37 643.389 1015.09 644.104 1017.76C644.818 1020.43 643.735 1023.03 641.683 1023.58C639.631 1024.13 637.388 1022.42 636.674 1019.75Z" fill="white" fill-opacity="0.5"/>
<path d="M644.572 998.998C643.857 996.331 644.941 993.723 646.993 993.173C649.045 992.623 651.287 994.34 652.002 997.007C652.717 999.674 651.633 1002.28 649.581 1002.83C647.529 1003.38 645.287 1001.67 644.572 998.998Z" fill="white" fill-opacity="0.5"/>
<path d="M669.686 992.269C668.971 989.601 670.055 986.993 672.107 986.444C674.159 985.894 676.401 987.611 677.116 990.278C677.831 992.945 676.747 995.553 674.695 996.103C672.643 996.653 670.401 994.936 669.686 992.269Z" fill="white" fill-opacity="0.5"/>
</g>
</g>
<g id="strawberry_6">
<path id="body_6" d="M123.354 653.472C125.389 661.069 110.82 685.358 93.1216 700.044C85.1538 706.656 71.0164 712.379 60.3338 708.83C45.4416 703.882 39.2926 698.989 34.3427 684.467L30.7821 671.179C27.8339 656.225 30.7233 648.953 41.1613 637.277C48.6487 628.901 63.7502 626.777 73.9491 628.491C96.6034 632.3 121.318 645.875 123.354 653.472Z" fill="#FFCCEB"/>
<path id="leaves_6" d="M25.0416 647.456C22.1123 654.588 28.27 670.824 33.1195 675.595L33.2658 683.657C33.6938 690.16 34.1219 696.666 37.2377 704.3C40.3536 711.934 50.7492 713.979 52.1547 699.131C62.9742 700.608 65.7976 692.121 56.8805 679.258C63.0994 673.313 62.1053 666.384 53.6184 663.562C54.9668 652.172 52.0733 640.075 38.6889 647.52C34.0882 640.097 27.3701 639.04 25.0416 647.456Z" fill="#C9E3C0"/>
<path id="stem_6" d="M18.2412 682.332C14.3589 667.843 41.4512 670.429 42.6146 674.771C43.778 679.112 22.1234 696.821 18.2412 682.332Z" fill="#B4DAA9"/>
<g id="seeds_6">
<path d="M70.9795 662.788C73.6469 662.073 76.2548 663.157 76.8046 665.209C77.3544 667.261 75.6378 669.503 72.9705 670.218C70.3031 670.933 67.6951 669.849 67.1454 667.797C66.5956 665.745 68.3122 663.502 70.9795 662.788Z" fill="white" fill-opacity="0.5"/>
<path d="M106.719 653.211C109.386 652.497 111.994 653.581 112.544 655.632C113.094 657.684 111.377 659.927 108.71 660.642C106.042 661.356 103.434 660.272 102.885 658.221C102.335 656.169 104.051 653.926 106.719 653.211Z" fill="white" fill-opacity="0.5"/>
<path d="M77.7088 687.902C80.3762 687.187 82.9841 688.271 83.5339 690.323C84.0837 692.375 82.3671 694.617 79.6997 695.332C77.0324 696.047 74.4244 694.963 73.8747 692.911C73.3249 690.859 75.0415 688.617 77.7088 687.902Z" fill="white" fill-opacity="0.5"/>
<path d="M64.2502 637.674C66.9176 636.959 69.5256 638.043 70.0753 640.095C70.6251 642.146 68.9085 644.389 66.2412 645.104C63.5738 645.819 60.9658 644.735 60.4161 642.683C59.8663 640.631 61.5829 638.388 64.2502 637.674Z" fill="white" fill-opacity="0.5"/>
<path d="M85.0016 645.572C87.6689 644.857 90.2769 645.941 90.8266 647.993C91.3764 650.045 89.6598 652.287 86.9925 653.002C84.3251 653.717 81.7172 652.633 81.1674 650.581C80.6176 648.529 82.3342 646.287 85.0016 645.572Z" fill="white" fill-opacity="0.5"/>
<path d="M91.7308 670.686C94.3982 669.971 97.0062 671.055 97.5559 673.107C98.1057 675.159 96.3891 677.402 93.7218 678.116C91.0544 678.831 88.4465 677.747 87.8967 675.695C87.3469 673.643 89.0635 671.401 91.7308 670.686Z" fill="white" fill-opacity="0.5"/>
</g>
</g>
<g id="strawberry_7">
<path id="body_7" d="M431.035 123.353C423.439 125.389 399.15 110.82 384.463 93.1212C377.851 85.1533 372.129 71.0159 375.678 60.3333C380.625 45.4411 385.518 39.2921 400.04 34.3422L413.329 30.7816C428.283 27.8334 435.554 30.7228 447.23 41.1608C455.606 48.6482 457.731 63.7497 456.016 73.9486C452.207 96.6029 438.632 121.318 431.035 123.353Z" fill="#FFCCEB"/>
<path id="leaves_7" d="M437.052 25.0414C429.92 22.1121 413.684 28.2697 408.913 33.1193L400.851 33.2655C394.348 33.6935 387.842 34.1217 380.208 37.2375C372.574 40.3533 370.529 50.749 385.377 52.1544C383.901 62.974 392.387 65.7973 405.25 56.8802C411.195 63.0991 418.124 62.1051 420.946 53.6182C432.337 54.9665 444.433 52.0731 436.988 38.6887C444.412 34.088 445.468 27.3698 437.052 25.0414Z" fill="#C9E3C0"/>
<path id="stem_7" d="M402.176 18.2412C416.665 14.3589 414.079 41.4512 409.737 42.6146C405.396 43.778 387.687 22.1234 402.176 18.2412Z" fill="#B4DAA9"/>
<g id="seeds_7">
<path d="M421.72 70.9798C422.435 73.6471 421.351 76.2551 419.299 76.8049C417.247 77.3546 415.005 75.638 414.29 72.9707C413.575 70.3034 414.659 67.6954 416.711 67.1456C418.763 66.5958 421.005 68.3125 421.72 70.9798Z" fill="white" fill-opacity="0.5"/>
<path d="M431.297 106.719C432.011 109.386 430.927 111.994 428.875 112.544C426.824 113.094 424.581 111.377 423.866 108.71C423.152 106.043 424.236 103.435 426.287 102.885C428.339 102.335 430.582 104.052 431.297 106.719Z" fill="white" fill-opacity="0.5"/>
<path d="M396.606 77.7091C397.321 80.3764 396.237 82.9844 394.185 83.5342C392.133 84.0839 389.891 82.3673 389.176 79.7C388.461 77.0327 389.545 74.4247 391.597 73.8749C393.649 73.3251 395.891 75.0417 396.606 77.7091Z" fill="white" fill-opacity="0.5"/>
<path d="M446.834 64.2505C447.549 66.9178 446.465 69.5258 444.413 70.0756C442.361 70.6253 440.119 68.9087 439.404 66.2414C438.689 63.5741 439.773 60.9661 441.825 60.4163C443.877 59.8665 446.12 61.5832 446.834 64.2505Z" fill="white" fill-opacity="0.5"/>
<path d="M438.936 85.0018C439.651 87.6691 438.567 90.2771 436.515 90.8269C434.463 91.3767 432.22 89.66 431.506 86.9927C430.791 84.3254 431.875 81.7174 433.927 81.1676C435.979 80.6179 438.221 82.3345 438.936 85.0018Z" fill="white" fill-opacity="0.5"/>
<path d="M413.822 91.7311C414.537 94.3984 413.453 97.0064 411.401 97.5562C409.349 98.106 407.106 96.3893 406.392 93.722C405.677 91.0547 406.761 88.4467 408.813 87.8969C410.865 87.3471 413.107 89.0638 413.822 91.7311Z" fill="white" fill-opacity="0.5"/>
</g>
</g>
<g id="strawberry_8">
<path id="body_8" d="M960.646 430.036C958.611 422.439 973.18 398.15 990.878 383.464C998.846 376.852 1012.98 371.129 1023.67 374.678C1038.56 379.626 1044.71 384.519 1049.66 399.041L1053.22 412.329C1056.17 427.283 1053.28 434.555 1042.84 446.231C1035.35 454.606 1020.25 456.731 1010.05 455.016C987.397 451.208 962.682 437.632 960.646 430.036Z" fill="#FFCCEB"/>
<path id="leaves_8" d="M1058.96 436.052C1061.89 428.92 1055.73 412.684 1050.88 407.913L1050.73 399.851C1050.31 393.348 1049.88 386.842 1046.76 379.208C1043.65 371.574 1033.25 369.529 1031.85 384.377C1021.03 382.9 1018.2 391.387 1027.12 404.25C1020.9 410.195 1021.89 417.124 1030.38 419.946C1029.03 431.336 1031.93 443.433 1045.31 435.988C1049.91 443.411 1056.63 444.468 1058.96 436.052Z" fill="#C9E3C0"/>
<path id="stem_8" d="M1065.76 401.175C1069.64 415.665 1042.55 413.079 1041.39 408.737C1040.22 404.395 1061.88 386.686 1065.76 401.175Z" fill="#B4DAA9"/>
<g id="seeds_8">
<path d="M1013.02 420.72C1010.35 421.435 1007.75 420.351 1007.2 418.299C1006.65 416.247 1008.36 414.004 1011.03 413.29C1013.7 412.575 1016.3 413.659 1016.85 415.711C1017.4 417.763 1015.69 420.005 1013.02 420.72Z" fill="white" fill-opacity="0.5"/>
<path d="M977.281 430.296C974.614 431.011 972.006 429.927 971.456 427.875C970.906 425.823 972.623 423.581 975.29 422.866C977.958 422.151 980.566 423.235 981.115 425.287C981.665 427.339 979.949 429.582 977.281 430.296Z" fill="white" fill-opacity="0.5"/>
<path d="M1006.29 395.606C1003.62 396.321 1001.02 395.237 1000.47 393.185C999.916 391.133 1001.63 388.89 1004.3 388.176C1006.97 387.461 1009.58 388.545 1010.13 390.597C1010.68 392.648 1008.96 394.891 1006.29 395.606Z" fill="white" fill-opacity="0.5"/>
<path d="M1019.75 445.834C1017.08 446.549 1014.47 445.465 1013.92 443.413C1013.37 441.361 1015.09 439.119 1017.76 438.404C1020.43 437.689 1023.03 438.773 1023.58 440.825C1024.13 442.877 1022.42 445.119 1019.75 445.834Z" fill="white" fill-opacity="0.5"/>
<path d="M998.998 437.936C996.331 438.65 993.723 437.567 993.173 435.515C992.624 433.463 994.34 431.22 997.008 430.506C999.675 429.791 1002.28 430.875 1002.83 432.927C1003.38 434.978 1001.67 437.221 998.998 437.936Z" fill="white" fill-opacity="0.5"/>
<path d="M992.269 412.822C989.602 413.536 986.994 412.452 986.444 410.401C985.894 408.349 987.611 406.106 990.278 405.391C992.946 404.677 995.554 405.761 996.103 407.812C996.653 409.864 994.936 412.107 992.269 412.822Z" fill="white" fill-opacity="0.5"/>
</g>
</g>
<g id="strawberry_9">
<path id="body_9" d="M759.389 920.568C766.201 916.635 793.433 924.421 812.199 937.716C820.648 943.701 829.835 955.875 829.172 967.112C828.247 982.778 825.112 989.984 812.366 998.523L800.452 1005.4C786.771 1012.12 778.999 1011.21 765.019 1004.15C754.991 999.086 749.03 985.049 748.047 974.754C745.862 951.886 752.578 924.5 759.389 920.568Z" fill="#FFF1CC"/>
<path id="leaves_9" d="M779.023 1017.09C786.671 1018.07 800.76 1007.92 804.113 1002L811.862 999.773C818.033 997.677 824.206 995.579 830.774 990.594C837.342 985.608 836.626 975.038 821.92 977.523C820.546 966.69 811.618 966.159 801.502 978.102C794.15 973.633 787.714 976.387 787.185 985.315C775.833 986.961 764.898 992.886 775.553 1003.89C769.573 1010.25 770.291 1017.02 779.023 1017.09Z" fill="#C9E3C0"/>
<path id="stem_9" d="M814.471 1014.63C801.48 1022.13 796.966 995.29 800.859 993.043C804.751 990.795 827.462 1007.13 814.471 1014.63Z" fill="#B4DAA9"/>
<g id="seeds_9">
<path d="M781.943 968.746C780.562 966.354 780.934 963.554 782.774 962.492C784.613 961.43 787.224 962.508 788.604 964.899C789.985 967.291 789.613 970.09 787.774 971.153C785.934 972.215 783.323 971.137 781.943 968.746Z" fill="white" fill-opacity="0.5"/>
<path d="M763.443 936.703C762.062 934.311 762.434 931.511 764.274 930.449C766.113 929.387 768.724 930.465 770.104 932.856C771.485 935.248 771.113 938.048 769.274 939.11C767.434 940.172 764.823 939.094 763.443 936.703Z" fill="white" fill-opacity="0.5"/>
<path d="M804.459 955.746C803.079 953.354 803.451 950.554 805.29 949.492C807.13 948.43 809.74 949.508 811.121 951.899C812.502 954.291 812.13 957.09 810.29 958.153C808.451 959.215 805.84 958.137 804.459 955.746Z" fill="white" fill-opacity="0.5"/>
<path d="M759.426 981.746C758.045 979.354 758.417 976.554 760.257 975.492C762.096 974.43 764.707 975.508 766.088 977.899C767.468 980.291 767.096 983.09 765.257 984.153C763.417 985.215 760.807 984.137 759.426 981.746Z" fill="white" fill-opacity="0.5"/>
<path d="M761.684 959.657C760.304 957.266 760.676 954.466 762.515 953.404C764.355 952.342 766.965 953.419 768.346 955.811C769.727 958.202 769.355 961.002 767.515 962.064C765.676 963.126 763.065 962.049 761.684 959.657Z" fill="white" fill-opacity="0.5"/>
<path d="M784.201 946.657C782.82 944.266 783.192 941.466 785.032 940.404C786.871 939.342 789.482 940.419 790.863 942.811C792.243 945.202 791.871 948.002 790.032 949.064C788.192 950.126 785.582 949.049 784.201 946.657Z" fill="white" fill-opacity="0.5"/>
</g>
</g>
<g id="strawberry_10">
<path id="body_10" d="M163.433 760.389C167.365 767.201 159.579 794.433 146.284 813.199C140.299 821.648 128.125 830.835 116.888 830.172C101.222 829.247 94.0166 826.112 85.4767 813.366L78.5982 801.452C71.88 787.771 72.7889 779.999 79.8493 766.019C84.9138 755.991 98.9508 750.03 109.246 749.047C132.114 746.862 159.5 753.578 163.433 760.389Z" fill="#FFF1CC"/>
<path id="leaves_10" d="M66.9137 780.023C65.9302 787.671 76.0801 801.759 81.9994 805.113L84.2271 812.862C86.3238 819.033 88.4211 825.206 93.4066 831.774C98.3921 838.341 108.963 837.626 106.477 822.92C117.31 821.546 117.841 812.618 105.899 802.501C110.367 795.149 107.614 788.714 98.6855 788.185C97.0397 776.833 91.1141 765.898 80.1126 776.553C73.7473 770.573 66.9846 771.291 66.9137 780.023Z" fill="#C9E3C0"/>
<path id="stem_10" d="M69.3718 815.471C61.8717 802.481 88.7103 797.967 90.9577 801.859C93.2051 805.752 76.8718 828.462 69.3718 815.471Z" fill="#B4DAA9"/>
<g id="seeds_10">
<path d="M115.254 782.943C117.646 781.562 120.446 781.934 121.508 783.774C122.57 785.613 121.492 788.224 119.101 789.605C116.709 790.985 113.91 790.613 112.847 788.774C111.785 786.934 112.863 784.324 115.254 782.943Z" fill="white" fill-opacity="0.5"/>
<path d="M147.297 764.443C149.689 763.062 152.489 763.434 153.551 765.274C154.613 767.113 153.535 769.724 151.144 771.105C148.752 772.485 145.952 772.113 144.89 770.274C143.828 768.434 144.906 765.824 147.297 764.443Z" fill="white" fill-opacity="0.5"/>
<path d="M128.254 805.46C130.646 804.079 133.446 804.451 134.508 806.29C135.57 808.13 134.492 810.741 132.101 812.121C129.709 813.502 126.91 813.13 125.847 811.29C124.785 809.451 125.863 806.84 128.254 805.46Z" fill="white" fill-opacity="0.5"/>
<path d="M102.254 760.426C104.646 759.046 107.446 759.418 108.508 761.257C109.57 763.097 108.492 765.707 106.101 767.088C103.709 768.469 100.91 768.097 99.8474 766.257C98.7853 764.418 99.863 761.807 102.254 760.426Z" fill="white" fill-opacity="0.5"/>
<path d="M124.343 762.685C126.734 761.304 129.534 761.676 130.596 763.515C131.658 765.355 130.581 767.966 128.189 769.346C125.798 770.727 122.998 770.355 121.936 768.515C120.874 766.676 121.951 764.065 124.343 762.685Z" fill="white" fill-opacity="0.5"/>
<path d="M137.343 785.201C139.734 783.821 142.534 784.193 143.596 786.032C144.658 787.872 143.581 790.482 141.189 791.863C138.798 793.244 135.998 792.872 134.936 791.032C133.874 789.193 134.951 786.582 137.343 785.201Z" fill="white" fill-opacity="0.5"/>
</g>
</g>
<g id="strawberry_11">
<path id="body_11" d="M324.118 163.433C317.307 167.365 290.075 159.579 271.308 146.285C262.86 140.3 253.673 128.125 254.336 116.888C255.261 101.223 258.396 94.0168 271.142 85.477L283.056 78.5984C296.737 71.8802 304.509 72.7892 318.489 79.8495C328.517 84.9141 334.477 98.9511 335.461 109.246C337.645 132.114 330.929 159.5 324.118 163.433Z" fill="#FFF1CC"/>
<path id="leaves_11" d="M304.485 66.9135C296.837 65.9299 282.748 76.0799 279.395 81.9992L271.646 84.2269C265.475 86.3235 259.302 88.4209 252.734 93.4063C246.166 98.3919 246.881 108.963 261.588 106.477C262.961 117.31 271.89 117.841 282.006 105.898C289.358 110.367 295.794 107.613 296.323 98.6852C307.675 97.0395 318.61 91.1139 307.955 80.1124C313.935 73.7471 313.216 66.9844 304.485 66.9135Z" fill="#C9E3C0"/>
<path id="stem_11" d="M269.037 69.3718C282.027 61.8717 286.541 88.7103 282.649 90.9577C278.756 93.2051 256.046 76.8718 269.037 69.3718Z" fill="#B4DAA9"/>
<g id="seeds_11">
<path d="M301.565 115.255C302.946 117.646 302.574 120.446 300.734 121.508C298.895 122.57 296.284 121.492 294.903 119.101C293.523 116.709 293.895 113.91 295.734 112.848C297.574 111.786 300.184 112.863 301.565 115.255Z" fill="white" fill-opacity="0.5"/>
<path d="M320.065 147.298C321.446 149.689 321.074 152.489 319.234 153.551C317.395 154.613 314.784 153.535 313.403 151.144C312.023 148.752 312.395 145.953 314.234 144.891C316.074 143.829 318.684 144.906 320.065 147.298Z" fill="white" fill-opacity="0.5"/>
<path d="M279.048 128.255C280.429 130.646 280.057 133.446 278.218 134.508C276.378 135.57 273.767 134.492 272.387 132.101C271.006 129.709 271.378 126.91 273.218 125.848C275.057 124.786 277.668 125.863 279.048 128.255Z" fill="white" fill-opacity="0.5"/>
<path d="M324.082 102.255C325.462 104.646 325.09 107.446 323.251 108.508C321.411 109.57 318.801 108.492 317.42 106.101C316.039 103.709 316.411 100.91 318.251 99.8477C320.09 98.7856 322.701 99.8633 324.082 102.255Z" fill="white" fill-opacity="0.5"/>
<path d="M321.823 124.343C323.204 126.735 322.832 129.534 320.993 130.596C319.153 131.658 316.542 130.581 315.162 128.189C313.781 125.798 314.153 122.998 315.993 121.936C317.832 120.874 320.443 121.952 321.823 124.343Z" fill="white" fill-opacity="0.5"/>
<path d="M299.307 137.343C300.687 139.735 300.316 142.534 298.476 143.596C296.636 144.658 294.026 143.581 292.645 141.189C291.264 138.798 291.636 135.998 293.476 134.936C295.316 133.874 297.926 134.952 299.307 137.343Z" fill="white" fill-opacity="0.5"/>
</g>
</g>
<g id="strawberry_12">
<path id="body_12" d="M920.567 323.118C916.635 316.307 924.421 289.075 937.716 270.308C943.701 261.86 955.875 252.673 967.112 253.336C982.778 254.261 989.983 257.396 998.523 270.142L1005.4 282.056C1012.12 295.737 1011.21 303.509 1004.15 317.489C999.086 327.517 985.049 333.477 974.754 334.461C951.886 336.645 924.5 329.929 920.567 323.118Z" fill="#FFF1CC"/>
<path id="leaves_12" d="M1017.09 303.485C1018.07 295.837 1007.92 281.748 1002 278.395L999.773 270.646C997.676 264.475 995.579 258.302 990.593 251.734C985.608 245.166 975.037 245.881 977.523 260.588C966.69 261.961 966.159 270.89 978.101 281.006C973.633 288.358 976.386 294.794 985.315 295.323C986.96 306.675 992.886 317.61 1003.89 306.955C1010.25 312.935 1017.02 312.216 1017.09 303.485Z" fill="#C9E3C0"/>
<path id="stem_12" d="M1014.63 268.037C1022.13 281.027 995.29 285.541 993.042 281.649C990.795 277.756 1007.13 255.046 1014.63 268.037Z" fill="#B4DAA9"/>
<g id="seeds_12">
<path d="M968.746 300.565C966.354 301.946 963.554 301.574 962.492 299.734C961.43 297.894 962.508 295.284 964.899 293.903C967.291 292.522 970.09 292.894 971.153 294.734C972.215 296.574 971.137 299.184 968.746 300.565Z" fill="white" fill-opacity="0.5"/>
<path d="M936.703 319.065C934.311 320.446 931.511 320.074 930.449 318.234C929.387 316.394 930.465 313.784 932.856 312.403C935.248 311.022 938.048 311.394 939.11 313.234C940.172 315.074 939.094 317.684 936.703 319.065Z" fill="white" fill-opacity="0.5"/>
<path d="M955.746 278.048C953.354 279.429 950.554 279.057 949.492 277.217C948.43 275.378 949.508 272.767 951.899 271.386C954.291 270.006 957.09 270.378 958.153 272.217C959.215 274.057 958.137 276.667 955.746 278.048Z" fill="white" fill-opacity="0.5"/>
<path d="M981.746 323.082C979.354 324.462 976.554 324.09 975.492 322.251C974.43 320.411 975.508 317.801 977.899 316.42C980.291 315.039 983.09 315.411 984.153 317.251C985.215 319.09 984.137 321.701 981.746 323.082Z" fill="white" fill-opacity="0.5"/>
<path d="M959.657 320.823C957.266 322.204 954.466 321.832 953.404 319.992C952.342 318.153 953.419 315.542 955.811 314.161C958.202 312.781 961.002 313.153 962.064 314.992C963.126 316.832 962.049 319.442 959.657 320.823Z" fill="white" fill-opacity="0.5"/>
<path d="M946.657 298.307C944.266 299.687 941.466 299.315 940.404 297.476C939.342 295.636 940.419 293.026 942.811 291.645C945.202 290.264 948.002 290.636 949.064 292.476C950.126 294.315 949.049 296.926 946.657 298.307Z" fill="white" fill-opacity="0.5"/>
</g>
</g>
<g id="strawberry_13">
<path id="body_13" d="M848.896 852.087C854.457 846.526 882.777 846.998 904.345 854.983C914.055 858.577 926.079 867.959 928.347 878.985C931.509 894.356 930.346 902.127 920.244 913.675L910.516 923.403C899.04 933.433 891.298 934.567 875.967 931.365C864.97 929.069 855.579 917.053 851.964 907.363C843.936 885.839 843.335 857.648 848.896 852.087Z" fill="#CCFFFA"/>
<path id="leaves_13" d="M892.842 940.236C900.483 939.206 911.465 925.756 913.172 919.17L920.081 915.013C925.499 911.391 930.919 907.767 935.972 901.252C941.026 894.736 937.599 884.711 924.037 890.918C919.906 880.809 911.145 882.608 904.464 896.761C896.206 894.348 890.702 898.673 892.502 907.434C881.963 911.962 872.934 920.516 886.074 928.385C881.945 936.081 884.389 942.427 892.842 940.236Z" fill="#C9E3C0"/>
<path id="stem_13" d="M926.445 928.687C915.838 939.293 904.532 914.538 907.71 911.359C910.888 908.181 937.052 918.08 926.445 928.687Z" fill="#B4DAA9"/>
<g id="seeds_13">
<path d="M883.15 892.786C881.198 890.833 880.832 888.033 882.334 886.531C883.836 885.029 886.637 885.394 888.589 887.347C890.542 889.299 890.907 892.1 889.405 893.602C887.903 895.104 885.103 894.739 883.15 892.786Z" fill="white" fill-opacity="0.5"/>
<path d="M856.987 866.623C855.035 864.67 854.669 861.87 856.171 860.368C857.673 858.866 860.474 859.231 862.427 861.184C864.379 863.136 864.744 865.937 863.242 867.439C861.74 868.941 858.94 868.576 856.987 866.623Z" fill="white" fill-opacity="0.5"/>
<path d="M901.535 874.401C899.582 872.449 899.217 869.648 900.719 868.146C902.221 866.644 905.022 867.009 906.974 868.962C908.927 870.915 909.292 873.715 907.79 875.217C906.288 876.719 903.488 876.354 901.535 874.401Z" fill="white" fill-opacity="0.5"/>
<path d="M864.765 911.171C862.813 909.218 862.447 906.418 863.95 904.916C865.452 903.414 868.252 903.779 870.205 905.731C872.157 907.684 872.523 910.485 871.021 911.987C869.519 913.489 866.718 913.123 864.765 911.171Z" fill="white" fill-opacity="0.5"/>
<path d="M861.23 889.25C859.277 887.298 858.912 884.497 860.414 882.995C861.916 881.493 864.717 881.859 866.669 883.811C868.622 885.764 868.987 888.564 867.485 890.066C865.983 891.568 863.182 891.203 861.23 889.25Z" fill="white" fill-opacity="0.5"/>
<path d="M879.615 870.866C877.662 868.913 877.297 866.112 878.799 864.61C880.301 863.108 883.101 863.474 885.054 865.426C887.007 867.379 887.372 870.18 885.87 871.682C884.368 873.184 881.567 872.818 879.615 870.866Z" fill="white" fill-opacity="0.5"/>
</g>
</g>
<g id="strawberry_14">
<path id="body_14" d="M231.913 849.896C237.474 855.457 237.002 883.776 229.018 905.345C225.423 915.055 216.041 927.079 205.015 929.347C189.645 932.508 181.873 931.345 170.325 921.244L160.597 911.516C150.567 900.04 149.434 892.297 152.635 876.967C154.932 865.97 166.948 856.579 176.637 852.964C198.161 844.936 226.352 844.335 231.913 849.896Z" fill="#CCFFFA"/>
<path id="leaves_14" d="M143.765 893.842C144.794 901.483 158.245 912.465 164.831 914.172L168.988 921.081C172.61 926.499 176.234 931.919 182.749 936.972C189.265 942.026 199.29 938.599 193.083 925.037C203.192 920.906 201.393 912.145 187.24 905.464C189.653 897.206 185.327 891.702 176.567 893.502C172.039 882.963 163.485 873.934 155.616 887.074C147.92 882.945 141.574 885.389 143.765 893.842Z" fill="#C9E3C0"/>
<path id="stem_14" d="M155.313 927.446C144.707 916.839 169.462 905.532 172.641 908.711C175.819 911.889 165.92 938.052 155.313 927.446Z" fill="#B4DAA9"/>
<g id="seeds_14">
<path d="M191.214 884.15C193.167 882.198 195.968 881.832 197.47 883.334C198.972 884.836 198.606 887.637 196.654 889.59C194.701 891.542 191.901 891.907 190.399 890.405C188.896 888.903 189.262 886.103 191.214 884.15Z" fill="white" fill-opacity="0.5"/>
<path d="M217.377 857.987C219.33 856.035 222.131 855.669 223.633 857.171C225.135 858.673 224.769 861.474 222.817 863.427C220.864 865.379 218.063 865.745 216.561 864.243C215.059 862.741 215.425 859.94 217.377 857.987Z" fill="white" fill-opacity="0.5"/>
<path d="M209.599 902.535C211.552 900.582 214.352 900.217 215.854 901.719C217.356 903.221 216.991 906.022 215.038 907.974C213.086 909.927 210.285 910.292 208.783 908.79C207.281 907.288 207.647 904.488 209.599 902.535Z" fill="white" fill-opacity="0.5"/>
<path d="M172.83 865.766C174.782 863.813 177.583 863.448 179.085 864.95C180.587 866.452 180.222 869.252 178.269 871.205C176.316 873.157 173.516 873.523 172.014 872.021C170.512 870.519 170.877 867.718 172.83 865.766Z" fill="white" fill-opacity="0.5"/>
<path d="M194.75 862.23C196.703 860.277 199.503 859.912 201.005 861.414C202.507 862.916 202.142 865.717 200.189 867.669C198.237 869.622 195.436 869.987 193.934 868.485C192.432 866.983 192.797 864.183 194.75 862.23Z" fill="white" fill-opacity="0.5"/>
<path d="M213.135 880.615C215.087 878.662 217.888 878.297 219.39 879.799C220.892 881.301 220.527 884.101 218.574 886.054C216.621 888.007 213.821 888.372 212.319 886.87C210.817 885.368 211.182 882.567 213.135 880.615Z" fill="white" fill-opacity="0.5"/>
</g>
</g>
<g id="strawberry_15">
<path id="body_15" d="M234.612 231.914C229.05 237.475 200.731 237.002 179.163 229.018C169.453 225.424 157.428 216.041 155.161 205.016C151.999 189.645 153.162 181.873 163.264 170.325L172.992 160.598C184.468 150.567 192.21 149.434 207.541 152.635C218.538 154.932 227.929 166.948 231.543 176.638C239.572 198.161 240.173 226.352 234.612 231.914Z" fill="#CCFFFA"/>
<path id="leaves_15" d="M190.666 143.765C183.025 144.794 172.043 158.244 170.335 164.83L163.427 168.987C158.009 172.61 152.589 176.233 147.536 182.749C142.482 189.264 145.909 199.29 159.471 193.083C163.601 203.191 172.363 201.393 179.044 187.239C187.302 189.652 192.805 185.327 191.006 176.566C201.545 172.038 210.573 163.485 197.434 155.616C201.563 147.92 199.119 141.573 190.666 143.765Z" fill="#C9E3C0"/>
<path id="stem_15" d="M157.063 155.314C167.669 144.707 178.976 169.463 175.798 172.641C172.62 175.819 146.456 165.921 157.063 155.314Z" fill="#B4DAA9"/>
<g id="seeds_15">
<path d="M200.358 191.214C202.31 193.167 202.676 195.968 201.174 197.47C199.672 198.972 196.871 198.606 194.918 196.654C192.966 194.701 192.6 191.901 194.102 190.399C195.604 188.897 198.405 189.262 200.358 191.214Z" fill="white" fill-opacity="0.5"/>
<path d="M226.521 217.377C228.473 219.33 228.838 222.131 227.336 223.633C225.834 225.135 223.034 224.769 221.081 222.817C219.129 220.864 218.763 218.063 220.265 216.561C221.767 215.059 224.568 215.425 226.521 217.377Z" fill="white" fill-opacity="0.5"/>
<path d="M181.973 209.599C183.925 211.552 184.291 214.352 182.789 215.854C181.287 217.356 178.486 216.991 176.534 215.038C174.581 213.086 174.216 210.285 175.718 208.783C177.22 207.281 180.02 207.647 181.973 209.599Z" fill="white" fill-opacity="0.5"/>
<path d="M218.742 172.83C220.695 174.782 221.06 177.583 219.558 179.085C218.056 180.587 215.256 180.222 213.303 178.269C211.351 176.316 210.985 173.516 212.487 172.014C213.989 170.512 216.79 170.877 218.742 172.83Z" fill="white" fill-opacity="0.5"/>
<path d="M222.278 194.75C224.231 196.703 224.596 199.503 223.094 201.005C221.592 202.507 218.791 202.142 216.839 200.189C214.886 198.237 214.521 195.436 216.023 193.934C217.525 192.432 220.325 192.797 222.278 194.75Z" fill="white" fill-opacity="0.5"/>
<path d="M203.893 213.135C205.846 215.087 206.211 217.888 204.709 219.39C203.207 220.892 200.407 220.527 198.454 218.574C196.501 216.621 196.136 213.821 197.638 212.319C199.14 210.817 201.941 211.182 203.893 213.135Z" fill="white" fill-opacity="0.5"/>
</g>
</g>
<g id="strawberry_16">
<path id="body_16" d="M852.087 233.612C846.526 228.051 846.998 199.731 854.982 178.163C858.577 168.453 867.959 156.429 878.985 154.161C894.355 151 902.127 152.162 913.675 162.264L923.403 171.992C933.433 183.468 934.566 191.211 931.365 206.541C929.068 217.538 917.052 226.929 907.363 230.544C885.839 238.572 857.648 239.173 852.087 233.612Z" fill="#CCFFFA"/>
<path id="leaves_16" d="M940.235 189.666C939.206 182.025 925.755 171.043 919.169 169.336L915.012 162.427C911.39 157.009 907.766 151.589 901.251 146.536C894.735 141.482 884.71 144.909 890.917 158.471C880.808 162.602 882.607 171.363 896.76 178.044C894.347 186.302 898.673 191.806 907.433 190.006C911.961 200.545 920.515 209.574 928.384 196.434C936.08 200.563 942.426 198.119 940.235 189.666Z" fill="#C9E3C0"/>
<path id="stem_16" d="M928.687 156.062C939.293 166.669 914.538 177.976 911.359 174.797C908.181 171.619 918.08 145.455 928.687 156.062Z" fill="#B4DAA9"/>
<g id="seeds_16">
<path d="M892.786 199.357C890.833 201.31 888.032 201.675 886.53 200.173C885.028 198.671 885.394 195.871 887.346 193.918C889.299 191.965 892.099 191.6 893.601 193.102C895.103 194.604 894.738 197.405 892.786 199.357Z" fill="white" fill-opacity="0.5"/>
<path d="M866.623 225.52C864.67 227.473 861.869 227.838 860.367 226.336C858.865 224.834 859.231 222.034 861.183 220.081C863.136 218.128 865.937 217.763 867.439 219.265C868.941 220.767 868.575 223.568 866.623 225.52Z" fill="white" fill-opacity="0.5"/>
<path d="M874.401 180.973C872.448 182.925 869.648 183.291 868.146 181.789C866.644 180.286 867.009 177.486 868.962 175.533C870.914 173.581 873.715 173.215 875.217 174.717C876.719 176.219 876.353 179.02 874.401 180.973Z" fill="white" fill-opacity="0.5"/>
<path d="M911.17 217.742C909.218 219.695 906.417 220.06 904.915 218.558C903.413 217.056 903.778 214.256 905.731 212.303C907.684 210.35 910.484 209.985 911.986 211.487C913.488 212.989 913.123 215.79 911.17 217.742Z" fill="white" fill-opacity="0.5"/>
<path d="M889.25 221.278C887.297 223.23 884.497 223.596 882.995 222.094C881.493 220.592 881.858 217.791 883.811 215.838C885.763 213.886 888.564 213.521 890.066 215.023C891.568 216.525 891.203 219.325 889.25 221.278Z" fill="white" fill-opacity="0.5"/>
<path d="M870.865 202.893C868.913 204.846 866.112 205.211 864.61 203.709C863.108 202.207 863.473 199.406 865.426 197.454C867.379 195.501 870.179 195.136 871.681 196.638C873.183 198.14 872.818 200.94 870.865 202.893Z" fill="white" fill-opacity="0.5"/>
</g>
</g>
<g id="strawberry_17">
<path id="body_17" d="M917.432 761.624C921.365 754.813 948.841 747.94 971.741 750.07C982.05 751.029 996.093 756.979 1001.14 767.042C1008.17 781.071 1009.06 788.879 1002.29 802.648L995.411 814.562C986.921 827.22 979.736 830.319 964.099 831.195C952.882 831.823 940.702 822.647 934.702 814.222C921.377 795.51 913.5 768.435 917.432 761.624Z" fill="#CCE1FF"/>
<path id="leaves_17" d="M982.695 835.395C989.809 832.423 996.936 816.589 996.88 809.786L1002.48 803.982C1006.77 799.081 1011.07 794.178 1014.27 786.577C1017.46 778.975 1011.56 770.178 1000.06 779.684C993.456 770.989 985.459 774.994 982.669 790.394C974.068 790.201 969.871 795.803 973.877 803.799C964.869 810.901 958.362 821.5 973.09 825.7C971.094 834.202 975.097 839.7 982.695 835.395Z" fill="#C9E3C0"/>
<path id="stem_17" d="M1012.16 815.542C1004.66 828.533 987.336 807.547 989.583 803.655C991.831 799.762 1019.66 802.552 1012.16 815.542Z" fill="#B4DAA9"/>
<g id="seeds_17">
<path d="M961.053 792.071C958.662 790.69 957.584 788.079 958.646 786.24C959.708 784.4 962.508 784.028 964.899 785.409C967.291 786.79 968.368 789.4 967.306 791.24C966.244 793.079 963.445 793.451 961.053 792.071Z" fill="white" fill-opacity="0.5"/>
<path d="M929.01 773.571C926.619 772.19 925.541 769.579 926.603 767.74C927.665 765.9 930.465 765.528 932.856 766.909C935.248 768.29 936.326 770.9 935.263 772.74C934.201 774.579 931.402 774.951 929.01 773.571Z" fill="white" fill-opacity="0.5"/>
<path d="M974.053 769.554C971.662 768.173 970.584 765.563 971.646 763.723C972.708 761.884 975.508 761.512 977.899 762.892C980.291 764.273 981.369 766.884 980.306 768.723C979.244 770.563 976.445 770.935 974.053 769.554Z" fill="white" fill-opacity="0.5"/>
<path d="M948.053 814.587C945.662 813.207 944.584 810.596 945.646 808.757C946.708 806.917 949.508 806.545 951.899 807.926C954.291 809.306 955.368 811.917 954.306 813.757C953.244 815.596 950.445 815.968 948.053 814.587Z" fill="white" fill-opacity="0.5"/>
<path d="M938.965 794.329C936.573 792.948 935.496 790.338 936.558 788.498C937.62 786.659 940.419 786.287 942.811 787.667C945.202 789.048 946.28 791.659 945.218 793.498C944.156 795.338 941.356 795.71 938.965 794.329Z" fill="white" fill-opacity="0.5"/>
<path d="M951.965 771.812C949.573 770.432 948.496 767.821 949.558 765.982C950.62 764.142 953.419 763.77 955.811 765.151C958.202 766.531 959.28 769.142 958.218 770.982C957.156 772.821 954.356 773.193 951.965 771.812Z" fill="white" fill-opacity="0.5"/>
</g>
</g>
<g id="strawberry_18">
<path id="body_18" d="M322.376 918.432C329.187 922.364 336.06 949.841 333.93 972.741C332.971 983.05 327.021 997.093 316.958 1002.14C302.929 1009.17 295.121 1010.06 281.352 1003.29L269.438 996.411C256.78 987.921 253.681 980.736 252.805 965.099C252.177 953.882 261.353 941.702 269.778 935.702C288.49 922.376 315.565 914.5 322.376 918.432Z" fill="#CCE1FF"/>
<path id="leaves_18" d="M248.604 983.695C251.576 990.81 267.411 997.936 274.214 997.881L280.018 1003.48C284.919 1007.77 289.822 1012.07 297.423 1015.27C305.025 1018.46 313.821 1012.56 304.316 1001.06C313.011 994.457 309.006 986.459 293.605 983.669C293.799 975.068 288.197 970.871 280.2 974.877C273.099 965.869 262.5 959.362 258.3 974.09C249.797 972.094 244.3 976.098 248.604 983.695Z" fill="#C9E3C0"/>
<path id="stem_18" d="M268.457 1013.16C255.467 1005.66 276.453 988.336 280.345 990.583C284.238 992.831 281.448 1020.66 268.457 1013.16Z" fill="#B4DAA9"/>
<g id="seeds_18">
<path d="M291.929 962.053C293.31 959.662 295.92 958.584 297.76 959.646C299.599 960.708 299.971 963.508 298.591 965.899C297.21 968.291 294.599 969.368 292.76 968.306C290.92 967.244 290.548 964.444 291.929 962.053Z" fill="white" fill-opacity="0.5"/>
<path d="M310.429 930.01C311.81 927.619 314.42 926.541 316.26 927.603C318.099 928.665 318.471 931.465 317.091 933.856C315.71 936.248 313.099 937.325 311.26 936.263C309.42 935.201 309.048 932.401 310.429 930.01Z" fill="white" fill-opacity="0.5"/>
<path d="M314.446 975.053C315.826 972.662 318.437 971.584 320.277 972.646C322.116 973.708 322.488 976.508 321.107 978.899C319.727 981.291 317.116 982.368 315.277 981.306C313.437 980.244 313.065 977.444 314.446 975.053Z" fill="white" fill-opacity="0.5"/>
<path d="M269.412 949.053C270.793 946.661 273.404 945.584 275.243 946.646C277.083 947.708 277.455 950.508 276.074 952.899C274.693 955.291 272.083 956.368 270.243 955.306C268.404 954.244 268.032 951.444 269.412 949.053Z" fill="white" fill-opacity="0.5"/>
<path d="M289.671 939.965C291.051 937.573 293.662 936.495 295.502 937.557C297.341 938.62 297.713 941.419 296.332 943.811C294.952 946.202 292.341 947.28 290.502 946.218C288.662 945.156 288.29 942.356 289.671 939.965Z" fill="white" fill-opacity="0.5"/>
<path d="M312.187 952.965C313.568 950.573 316.179 949.495 318.018 950.557C319.858 951.62 320.23 954.419 318.849 956.811C317.468 959.202 314.858 960.28 313.018 959.218C311.179 958.156 310.807 955.356 312.187 952.965Z" fill="white" fill-opacity="0.5"/>
</g>
</g>
<g id="strawberry_19">
<path id="body_19" d="M166.076 322.376C162.143 329.187 134.667 336.06 111.767 333.93C101.457 332.971 87.4143 327.021 82.3701 316.958C75.3382 302.929 74.45 295.121 81.2186 281.352L88.0971 269.438C96.5867 256.78 103.772 253.681 119.409 252.805C130.625 252.177 142.806 261.353 148.805 269.778C162.131 288.49 170.008 315.565 166.076 322.376Z" fill="#CCE1FF"/>
<path id="leaves_19" d="M100.813 248.605C93.6985 251.577 86.5722 267.411 86.6273 274.214L81.0304 280.018C76.7345 284.919 72.4371 289.822 69.2422 297.423C66.0471 305.025 71.9519 313.822 83.4452 304.316C90.0514 313.011 98.049 309.006 100.839 293.606C109.44 293.8 113.637 288.197 109.631 280.201C118.639 273.1 125.146 262.5 110.418 258.3C112.414 249.798 108.411 244.3 100.813 248.605Z" fill="#C9E3C0"/>
<path id="stem_19" d="M71.3431 268.458C78.8432 255.467 96.1718 276.453 93.9245 280.345C91.6771 284.238 63.8429 281.448 71.3431 268.458Z" fill="#B4DAA9"/>
<g id="seeds_19">
<path d="M122.455 291.929C124.846 293.31 125.924 295.921 124.862 297.76C123.8 299.6 121 299.972 118.608 298.591C116.217 297.21 115.139 294.6 116.201 292.76C117.263 290.921 120.063 290.549 122.455 291.929Z" fill="white" fill-opacity="0.5"/>
<path d="M154.498 310.429C156.889 311.81 157.967 314.421 156.905 316.26C155.843 318.1 153.043 318.472 150.651 317.091C148.26 315.71 147.182 313.1 148.244 311.26C149.306 309.421 152.106 309.049 154.498 310.429Z" fill="white" fill-opacity="0.5"/>
<path d="M109.455 314.446C111.846 315.827 112.924 318.437 111.862 320.277C110.8 322.116 108 322.488 105.608 321.108C103.217 319.727 102.139 317.116 103.201 315.277C104.263 313.437 107.063 313.065 109.455 314.446Z" fill="white" fill-opacity="0.5"/>
<path d="M135.455 269.413C137.846 270.793 138.924 273.404 137.862 275.243C136.8 277.083 134 277.455 131.608 276.074C129.217 274.694 128.139 272.083 129.201 270.243C130.263 268.404 133.063 268.032 135.455 269.413Z" fill="white" fill-opacity="0.5"/>
<path d="M144.543 289.671C146.935 291.052 148.012 293.662 146.95 295.502C145.888 297.341 143.088 297.713 140.697 296.333C138.305 294.952 137.228 292.341 138.29 290.502C139.352 288.662 142.152 288.29 144.543 289.671Z" fill="white" fill-opacity="0.5"/>
<path d="M131.543 312.188C133.935 313.568 135.012 316.179 133.95 318.018C132.888 319.858 130.088 320.23 127.697 318.849C125.305 317.469 124.228 314.858 125.29 313.018C126.352 311.179 129.152 310.807 131.543 312.188Z" fill="white" fill-opacity="0.5"/>
</g>
</g>
<g id="strawberry_20">
<path id="body_20" d="M761.624 165.076C754.813 161.143 747.94 133.667 750.07 110.767C751.029 100.458 756.979 86.4146 767.042 81.3704C781.071 74.3384 788.879 73.4503 802.648 80.2188L814.562 87.0974C827.22 95.5869 830.319 102.772 831.195 118.409C831.823 129.626 822.647 141.806 814.222 147.806C795.51 161.132 768.435 169.008 761.624 165.076Z" fill="#CCE1FF"/>
<path id="leaves_20" d="M835.396 99.8129C832.424 92.6982 816.589 85.5719 809.786 85.6271L803.982 80.0302C799.081 75.7343 794.178 71.4369 786.577 68.2419C778.975 65.0469 770.179 70.9517 779.684 82.445C770.989 89.0512 774.994 97.0488 790.395 99.8386C790.201 108.44 795.803 112.636 803.8 108.631C810.901 117.639 821.5 124.146 825.7 109.418C834.203 111.414 839.7 107.41 835.396 99.8129Z" fill="#C9E3C0"/>
<path id="stem_20" d="M815.543 70.3431C828.533 77.8433 807.547 95.1718 803.655 92.9245C799.762 90.6771 802.552 62.8429 815.543 70.3431Z" fill="#B4DAA9"/>
<g id="seeds_20">
<path d="M792.071 121.455C790.69 123.846 788.08 124.924 786.24 123.862C784.401 122.8 784.029 120 785.409 117.609C786.79 115.217 789.401 114.14 791.24 115.202C793.08 116.264 793.452 119.063 792.071 121.455Z" fill="white" fill-opacity="0.5"/>
<path d="M773.571 153.498C772.19 155.889 769.58 156.967 767.74 155.905C765.901 154.843 765.529 152.043 766.909 149.652C768.29 147.26 770.901 146.183 772.74 147.245C774.58 148.307 774.952 151.106 773.571 153.498Z" fill="white" fill-opacity="0.5"/>
<path d="M769.554 108.455C768.174 110.846 765.563 111.924 763.723 110.862C761.884 109.8 761.512 107 762.893 104.609C764.273 102.217 766.884 101.14 768.723 102.202C770.563 103.264 770.935 106.063 769.554 108.455Z" fill="white" fill-opacity="0.5"/>
<path d="M814.588 134.455C813.207 136.846 810.596 137.924 808.757 136.862C806.917 135.8 806.545 133 807.926 130.609C809.307 128.217 811.917 127.14 813.757 128.202C815.596 129.264 815.968 132.063 814.588 134.455Z" fill="white" fill-opacity="0.5"/>
<path d="M794.329 143.543C792.949 145.935 790.338 147.012 788.498 145.95C786.659 144.888 786.287 142.089 787.668 139.697C789.048 137.306 791.659 136.228 793.498 137.29C795.338 138.352 795.71 141.152 794.329 143.543Z" fill="white" fill-opacity="0.5"/>
<path d="M771.813 130.543C770.432 132.935 767.821 134.012 765.982 132.95C764.142 131.888 763.77 129.089 765.151 126.697C766.532 124.306 769.142 123.228 770.982 124.29C772.821 125.352 773.193 128.152 771.813 130.543Z" fill="white" fill-opacity="0.5"/>
</g>
</g>
<g id="strawberry_21">
<path id="body_21" d="M958.575 656.734C960.61 649.137 985.372 635.387 1008.04 631.517C1018.25 629.775 1033.35 631.888 1040.83 640.302C1051.25 652.033 1054.13 659.345 1051.16 674.396L1047.6 687.685C1042.67 702.11 1036.54 706.962 1021.66 711.855C1010.99 715.365 996.845 709.654 988.87 703.07C971.155 688.444 956.539 664.33 958.575 656.734Z" fill="#E8CCFF"/>
<path id="leaves_21" d="M1040.71 711.1C1046.81 706.388 1049.6 689.248 1047.78 682.691L1051.69 675.637C1054.57 669.791 1057.45 663.943 1058.57 655.773C1059.69 647.604 1051.71 640.635 1043.06 652.792C1034.43 646.103 1027.74 652.041 1029.04 667.639C1020.68 669.678 1018.07 676.176 1024.01 682.863C1017.15 692.053 1013.61 703.976 1028.92 704.221C1029.19 712.95 1034.48 717.224 1040.71 711.1Z" fill="#C9E3C0"/>
<path id="stem_21" d="M1064.04 684.296C1060.15 698.785 1037.98 682.999 1039.15 678.658C1040.31 674.316 1067.92 669.807 1064.04 684.296Z" fill="#B4DAA9"/>
<g id="seeds_21">
<path d="M1008.59 674.853C1005.92 674.138 1004.21 671.895 1004.76 669.844C1005.31 667.792 1007.91 666.708 1010.58 667.423C1013.25 668.137 1014.96 670.38 1014.41 672.432C1013.87 674.484 1011.26 675.568 1008.59 674.853Z" fill="white" fill-opacity="0.5"/>
<path d="M972.851 665.277C970.183 664.562 968.467 662.319 969.016 660.267C969.566 658.216 972.174 657.132 974.841 657.846C977.509 658.561 979.225 660.804 978.676 662.856C978.126 664.907 975.518 665.991 972.851 665.277Z" fill="white" fill-opacity="0.5"/>
<path d="M1015.32 649.739C1012.65 649.024 1010.94 646.781 1011.48 644.73C1012.03 642.678 1014.64 641.594 1017.31 642.309C1019.98 643.023 1021.69 645.266 1021.14 647.318C1020.59 649.37 1017.99 650.453 1015.32 649.739Z" fill="white" fill-opacity="0.5"/>
<path d="M1001.86 699.967C999.193 699.252 997.477 697.01 998.026 694.958C998.576 692.906 1001.18 691.822 1003.85 692.537C1006.52 693.251 1008.24 695.494 1007.69 697.546C1007.14 699.598 1004.53 700.682 1001.86 699.967Z" fill="white" fill-opacity="0.5"/>
<path d="M987.838 682.751C985.171 682.036 983.455 679.794 984.004 677.742C984.554 675.69 987.162 674.606 989.829 675.321C992.497 676.036 994.213 678.278 993.664 680.33C993.114 682.382 990.506 683.466 987.838 682.751Z" fill="white" fill-opacity="0.5"/>
<path d="M994.568 657.637C991.9 656.922 990.184 654.68 990.734 652.628C991.283 650.576 993.891 649.492 996.559 650.207C999.226 650.922 1000.94 653.164 1000.39 655.216C999.843 657.268 997.235 658.352 994.568 657.637Z" fill="white" fill-opacity="0.5"/>
</g>
</g>
<g id="strawberry_22">
<path id="body_22" d="M427.266 959.575C434.863 961.611 448.613 986.372 452.483 1009.04C454.225 1019.25 452.112 1034.35 443.698 1041.83C431.967 1052.25 424.655 1055.13 409.603 1052.16L396.315 1048.6C381.89 1043.67 377.037 1037.54 372.145 1022.66C368.635 1011.99 374.346 997.846 380.93 989.87C395.556 972.156 419.67 957.54 427.266 959.575Z" fill="#E8CCFF"/>
<path id="leaves_22" d="M372.9 1041.71C377.612 1047.81 394.752 1050.6 401.309 1048.78L408.363 1052.69C414.209 1055.57 420.057 1058.45 428.226 1059.57C436.396 1060.69 443.365 1052.71 431.208 1044.06C437.897 1035.43 431.959 1028.74 416.361 1030.04C414.322 1021.68 407.824 1019.07 401.137 1025.01C391.947 1018.15 380.024 1014.61 379.779 1029.92C371.05 1030.19 366.776 1035.48 372.9 1041.71Z" fill="#C9E3C0"/>
<path id="stem_22" d="M399.704 1065.04C385.215 1061.15 401.001 1038.98 405.342 1040.15C409.684 1041.31 414.193 1068.92 399.704 1065.04Z" fill="#B4DAA9"/>
<g id="seeds_22">
<path d="M409.147 1009.59C409.862 1006.92 412.105 1005.21 414.156 1005.76C416.208 1006.31 417.292 1008.91 416.577 1011.58C415.863 1014.25 413.62 1015.96 411.568 1015.42C409.516 1014.87 408.433 1012.26 409.147 1009.59Z" fill="white" fill-opacity="0.5"/>
<path d="M418.724 973.851C419.438 971.183 421.681 969.467 423.733 970.017C425.785 970.566 426.868 973.174 426.154 975.842C425.439 978.509 423.196 980.226 421.145 979.676C419.093 979.126 418.009 976.518 418.724 973.851Z" fill="white" fill-opacity="0.5"/>
<path d="M434.261 1016.32C434.976 1013.65 437.219 1011.94 439.271 1012.49C441.322 1013.03 442.406 1015.64 441.692 1018.31C440.977 1020.98 438.734 1022.69 436.682 1022.14C434.631 1021.59 433.547 1018.99 434.261 1016.32Z" fill="white" fill-opacity="0.5"/>
<path d="M384.033 1002.86C384.748 1000.19 386.991 998.477 389.042 999.026C391.094 999.576 392.178 1002.18 391.463 1004.85C390.749 1007.52 388.506 1009.24 386.454 1008.69C384.402 1008.14 383.319 1005.53 384.033 1002.86Z" fill="white" fill-opacity="0.5"/>
<path d="M401.249 988.839C401.964 986.171 404.206 984.455 406.258 985.004C408.31 985.554 409.394 988.162 408.679 990.83C407.964 993.497 405.722 995.213 403.67 994.664C401.618 994.114 400.534 991.506 401.249 988.839Z" fill="white" fill-opacity="0.5"/>
<path d="M426.363 995.568C427.078 992.901 429.32 991.184 431.372 991.734C433.424 992.284 434.508 994.891 433.793 997.559C433.079 1000.23 430.836 1001.94 428.784 1001.39C426.732 1000.84 425.648 998.235 426.363 995.568Z" fill="white" fill-opacity="0.5"/>
</g>
</g>
<g id="strawberry_23">
<path id="body_23" d="M124.933 427.267C122.897 434.864 98.1358 448.614 75.4652 452.483C65.2589 454.226 50.1542 452.113 42.6774 443.698C32.2541 431.967 29.3754 424.655 32.3497 409.604L35.9103 396.316C40.8341 381.891 46.9723 377.038 61.8499 372.145C72.5219 368.636 86.6625 374.346 94.6377 380.931C112.353 395.556 126.968 419.67 124.933 427.267Z" fill="#E8CCFF"/>
<path id="leaves_23" d="M42.7999 372.901C36.6969 377.613 33.9117 394.752 35.7258 401.309L31.8217 408.364C28.9407 414.21 26.0587 420.058 24.94 428.227C23.8212 436.396 31.8016 443.365 40.4431 431.209C49.0746 437.898 55.7632 431.959 54.472 416.362C62.8302 414.323 65.4338 407.825 59.4949 401.138C66.3579 391.947 69.9003 380.025 54.5868 379.78C54.3142 371.05 49.0244 366.776 42.7999 372.901Z" fill="#C9E3C0"/>
<path id="stem_23" d="M19.4727 399.704C23.3551 385.215 45.5247 401.001 44.3615 405.343C43.1982 409.684 15.5903 414.193 19.4727 399.704Z" fill="#B4DAA9"/>
<g id="seeds_23">
<path d="M74.918 409.148C77.5853 409.862 79.302 412.105 78.7522 414.157C78.2024 416.209 75.5944 417.292 72.9271 416.578C70.2598 415.863 68.5431 413.62 69.0929 411.569C69.6427 409.517 72.2507 408.433 74.918 409.148Z" fill="white" fill-opacity="0.5"/>
<path d="M110.657 418.724C113.325 419.439 115.041 421.681 114.491 423.733C113.942 425.785 111.334 426.869 108.666 426.154C105.999 425.439 104.282 423.197 104.832 421.145C105.382 419.093 107.99 418.009 110.657 418.724Z" fill="white" fill-opacity="0.5"/>
<path d="M68.1887 434.262C70.856 434.976 72.5727 437.219 72.0229 439.271C71.4731 441.323 68.8651 442.407 66.1978 441.692C63.5305 440.977 61.8138 438.734 62.3636 436.683C62.9134 434.631 65.5214 433.547 68.1887 434.262Z" fill="white" fill-opacity="0.5"/>
<path d="M81.6473 384.033C84.3146 384.748 86.0313 386.991 85.4815 389.043C84.9317 391.094 82.3237 392.178 79.6564 391.464C76.9891 390.749 75.2724 388.506 75.8222 386.454C76.372 384.403 78.98 383.319 81.6473 384.033Z" fill="white" fill-opacity="0.5"/>
<path d="M95.6693 401.249C98.3367 401.964 100.053 404.207 99.5035 406.258C98.9537 408.31 96.3457 409.394 93.6784 408.679C91.0111 407.965 89.2945 405.722 89.8442 403.67C90.394 401.618 93.002 400.535 95.6693 401.249Z" fill="white" fill-opacity="0.5"/>
<path d="M88.94 426.363C91.6074 427.078 93.324 429.321 92.7742 431.373C92.2244 433.424 89.6164 434.508 86.9491 433.794C84.2818 433.079 82.5652 430.836 83.1149 428.784C83.6647 426.733 86.2727 425.649 88.94 426.363Z" fill="white" fill-opacity="0.5"/>
</g>
</g>
<g id="strawberry_24">
<path id="body_24" d="M656.734 123.932C649.137 121.897 635.387 97.1353 631.517 74.4647C629.775 64.2584 631.888 49.1537 640.302 41.6769C652.033 31.2536 659.345 28.3749 674.397 31.3492L687.685 34.9098C702.11 39.8337 706.963 45.9718 711.855 60.8494C715.365 71.5214 709.654 85.662 703.07 93.6372C688.444 111.352 664.33 125.968 656.734 123.932Z" fill="#E8CCFF"/>
<path id="leaves_24" d="M711.1 41.8002C706.388 35.6972 689.248 32.912 682.691 34.726L675.637 30.8219C669.791 27.9409 663.943 25.059 655.774 23.9402C647.604 22.8215 640.635 30.8019 652.792 39.4433C646.103 48.0748 652.041 54.7634 667.639 53.4722C669.678 61.8304 676.176 64.4341 682.863 58.4951C692.053 65.3582 703.976 68.9005 704.221 53.587C712.95 53.3144 717.224 48.0247 711.1 41.8002Z" fill="#C9E3C0"/>
<path id="stem_24" d="M684.296 18.4727C698.785 22.3551 682.999 44.5247 678.658 43.3615C674.316 42.1982 669.807 14.5903 684.296 18.4727Z" fill="#B4DAA9"/>
<g id="seeds_24">
<path d="M674.853 73.918C674.138 76.5853 671.895 78.302 669.844 77.7522C667.792 77.2024 666.708 74.5944 667.423 71.9271C668.137 69.2598 670.38 67.5431 672.432 68.0929C674.484 68.6427 675.567 71.2507 674.853 73.918Z" fill="white" fill-opacity="0.5"/>
<path d="M665.276 109.657C664.562 112.325 662.319 114.041 660.267 113.491C658.215 112.942 657.131 110.334 657.846 107.666C658.561 104.999 660.804 103.282 662.855 103.832C664.907 104.382 665.991 106.99 665.276 109.657Z" fill="white" fill-opacity="0.5"/>
<path d="M649.739 67.1887C649.024 69.856 646.781 71.5727 644.729 71.0229C642.678 70.4731 641.594 67.8651 642.308 65.1978C643.023 62.5305 645.266 60.8138 647.318 61.3636C649.369 61.9134 650.453 64.5214 649.739 67.1887Z" fill="white" fill-opacity="0.5"/>
<path d="M699.967 80.6473C699.252 83.3146 697.009 85.0313 694.958 84.4815C692.906 83.9317 691.822 81.3237 692.537 78.6564C693.251 75.9891 695.494 74.2724 697.546 74.8222C699.598 75.372 700.681 77.98 699.967 80.6473Z" fill="white" fill-opacity="0.5"/>
<path d="M682.751 94.6693C682.036 97.3367 679.794 99.0533 677.742 98.5035C675.69 97.9537 674.606 95.3457 675.321 92.6784C676.036 90.0111 678.278 88.2945 680.33 88.8442C682.382 89.394 683.466 92.002 682.751 94.6693Z" fill="white" fill-opacity="0.5"/>
<path d="M657.637 87.94C656.922 90.6074 654.68 92.324 652.628 91.7742C650.576 91.2244 649.492 88.6164 650.207 85.9491C650.921 83.2818 653.164 81.5652 655.216 82.1149C657.268 82.6647 658.352 85.2727 657.637 87.94Z" fill="white" fill-opacity="0.5"/>
</g>
</g>
</g>
</g>
</svg>
